<?xml version="1.0" standalone="no"?>
<!DOCTYPE svg PUBLIC "-//W3C//DTD SVG 20010904//EN"
 "http://www.w3.org/TR/2001/REC-SVG-20010904/DTD/svg10.dtd">
<svg version="1.0" xmlns="http://www.w3.org/2000/svg"
 width="1067.000000pt" height="1067.000000pt" viewBox="0 0 1067.000000 1067.000000"
 preserveAspectRatio="xMidYMid meet">

<g transform="translate(0.000000,1067.000000) scale(0.100000,-0.100000)"
fill="#000000" stroke="none">
<path d="M5670 10421 c0 -5 -9 -12 -19 -16 -11 -3 -36 -17 -56 -31 -49 -33
-195 -109 -270 -140 -208 -87 -339 -139 -403 -159 -41 -13 -82 -31 -91 -39
-10 -9 -42 -19 -72 -23 -30 -3 -70 -13 -89 -22 -19 -8 -100 -32 -180 -52 -80
-20 -170 -46 -200 -57 -30 -11 -95 -32 -145 -48 -49 -15 -106 -36 -125 -46
-19 -10 -48 -18 -65 -18 -16 -1 -55 -14 -85 -30 -30 -17 -63 -30 -73 -30 -16
0 -92 -37 -194 -94 -63 -36 -138 -103 -196 -175 -72 -90 -97 -133 -187 -326
-82 -175 -127 -263 -162 -315 -9 -14 -20 -38 -24 -55 -4 -16 -16 -48 -27 -70
-11 -22 -24 -53 -28 -70 -4 -16 -14 -50 -23 -75 -12 -39 -31 -171 -51 -360 -5
-49 1 -125 35 -402 5 -42 16 -91 25 -108 24 -47 17 -111 -15 -127 -60 -30
-140 -143 -140 -198 0 -26 35 -65 58 -65 29 0 44 16 76 82 26 52 36 64 59 66
17 2 27 -1 27 -10 3 -69 13 -125 25 -138 21 -23 19 -47 -6 -61 -18 -9 -20 -17
-15 -50 6 -35 4 -39 -19 -45 -32 -8 -45 -31 -38 -67 9 -45 40 -58 124 -55 69
3 74 5 77 26 5 33 -14 50 -64 58 -24 3 -44 9 -44 13 0 4 17 12 38 18 20 6 55
18 77 27 22 8 57 15 78 16 34 0 37 2 27 19 -6 12 -33 26 -65 35 -68 20 -102
62 -122 148 -8 34 -25 80 -39 103 -25 43 -32 99 -14 110 13 8 38 -8 108 -68
59 -49 201 -137 223 -137 8 0 24 -6 35 -14 11 -8 44 -22 73 -32 29 -9 66 -28
81 -40 25 -21 29 -33 35 -103 7 -81 2 -121 -16 -121 -6 0 -25 11 -42 23 -43
31 -141 68 -197 74 -54 6 -46 -9 15 -29 49 -16 57 -51 14 -56 -15 -2 -34 -11
-43 -21 -16 -18 -15 -20 8 -39 41 -31 34 -46 -16 -36 -98 19 -274 6 -295 -22
-12 -17 1 -64 19 -64 4 0 8 -14 8 -30 0 -24 -6 -33 -27 -43 -54 -23 -62 -58
-30 -128 13 -30 28 -67 33 -84 9 -28 13 -30 57 -30 52 -1 63 -9 73 -61 6 -33
-18 -104 -35 -104 -20 0 -82 63 -103 104 -62 121 -82 167 -98 221 -10 33 -25
79 -34 102 -8 23 -18 78 -22 122 -6 71 -10 83 -36 108 -24 23 -31 25 -39 13
-15 -21 -4 -186 16 -256 60 -206 117 -335 200 -449 34 -48 132 -149 173 -180
34 -25 70 -75 144 -200 7 -11 25 -39 40 -62 15 -23 28 -43 28 -46 0 -3 18 -34
40 -68 22 -35 49 -80 60 -99 11 -19 24 -42 30 -50 43 -68 190 -322 190 -328 0
-5 11 -19 25 -32 35 -32 34 -79 -2 -112 -16 -14 -68 -67 -117 -117 -49 -50
-94 -91 -99 -91 -17 0 -178 181 -190 214 -6 14 4 30 42 65 27 25 52 56 56 69
14 46 -88 172 -139 172 -19 0 -67 -28 -86 -50 -15 -18 -79 -60 -91 -60 -14 0
-35 25 -156 186 -12 16 -71 96 -132 177 -61 81 -111 152 -111 156 0 5 -7 14
-15 21 -18 15 -286 367 -340 446 -10 16 -28 41 -40 55 -11 14 -30 39 -42 55
-41 55 -96 129 -138 184 -24 30 -103 136 -176 234 -157 209 -144 194 -190 229
-26 19 -48 27 -78 27 -48 0 -75 -13 -171 -78 -207 -144 -265 -189 -292 -232
-45 -70 -35 -105 77 -256 16 -23 68 -94 115 -158 47 -65 122 -168 167 -229 45
-62 91 -125 102 -142 28 -40 190 -263 266 -365 33 -44 67 -92 75 -105 14 -21
101 -143 237 -329 29 -39 63 -87 77 -106 13 -19 31 -41 40 -49 9 -7 16 -17 16
-22 0 -5 27 -46 60 -91 33 -45 60 -89 60 -99 0 -10 -29 -44 -65 -75 -73 -64
-84 -88 -61 -130 24 -47 92 -114 114 -114 11 0 47 23 79 50 32 28 69 53 82 57
26 6 27 6 91 -82 19 -27 39 -54 45 -62 15 -20 -6 -45 -50 -58 -22 -6 -49 -16
-60 -22 -11 -6 -58 -25 -105 -42 -47 -18 -92 -36 -100 -42 -8 -5 -38 -21 -66
-34 -28 -14 -59 -34 -69 -45 -26 -28 -67 -38 -190 -45 -121 -7 -277 -30 -305
-45 -10 -5 -51 -15 -91 -21 -41 -6 -91 -20 -111 -30 -21 -11 -43 -19 -50 -19
-7 0 -33 -11 -58 -24 -25 -13 -56 -27 -69 -31 -71 -22 -296 -213 -407 -345
-120 -143 -223 -308 -291 -464 -49 -110 -103 -338 -103 -429 0 -55 -14 -85
-69 -146 -62 -67 -88 -129 -105 -241 -18 -123 -39 -221 -66 -305 -10 -33 -24
-79 -30 -102 -6 -24 -15 -43 -20 -43 -16 0 -12 -242 4 -281 8 -19 17 -70 21
-114 3 -44 12 -98 20 -120 8 -22 28 -96 45 -165 17 -69 40 -152 52 -186 l21
-61 -23 -64 c-19 -52 -24 -92 -28 -209 -5 -162 5 -234 43 -313 14 -30 25 -58
25 -63 0 -21 80 -132 136 -190 33 -33 89 -82 127 -108 37 -26 67 -52 67 -57 0
-5 126 -9 300 -9 167 0 300 4 300 9 0 5 39 21 88 36 150 46 265 91 397 157 95
47 125 73 125 107 0 49 11 54 93 46 114 -10 176 6 274 71 89 60 179 144 262
247 52 63 72 76 97 59 23 -16 93 -125 100 -155 3 -18 10 -36 14 -42 5 -5 13
-28 19 -50 14 -54 70 -137 102 -152 42 -21 566 -49 1132 -62 407 -9 1057 7
1547 40 139 9 159 12 193 35 21 14 42 35 46 47 37 97 134 273 185 337 96 119
95 118 181 55 85 -63 252 -175 260 -175 3 0 21 -11 38 -24 56 -42 410 -226
437 -226 8 0 24 -7 35 -16 11 -8 47 -23 80 -34 33 -10 98 -33 145 -50 122 -46
169 -53 315 -47 136 5 137 5 282 73 203 95 336 265 404 519 10 39 19 79 19 90
0 26 33 128 59 185 11 25 21 54 21 66 0 23 29 125 61 219 12 33 25 80 31 105
5 25 11 55 14 68 2 12 16 27 29 32 l25 10 0 221 c0 213 -1 221 -20 226 -14 4
-25 21 -36 62 -8 31 -18 63 -20 71 -3 8 -14 69 -25 135 -11 66 -30 150 -41
187 -19 66 -31 85 -120 197 l-43 54 -6 136 c-5 132 -7 139 -52 256 -26 66 -52
129 -59 140 -6 11 -22 41 -35 67 -36 71 -137 223 -201 302 -48 58 -207 220
-266 269 -60 51 -103 78 -176 112 -30 14 -68 32 -85 40 -73 34 -166 65 -198
65 -18 0 -58 8 -88 19 -73 25 -168 39 -316 47 -120 6 -122 7 -180 45 -32 21
-61 39 -66 39 -4 0 -24 10 -45 23 -20 13 -75 38 -122 55 -47 18 -93 37 -104
43 -10 6 -41 17 -67 25 -40 12 -49 19 -49 38 0 35 106 166 134 166 8 0 45 -25
81 -55 65 -53 88 -63 110 -47 30 20 105 127 105 147 0 16 -13 33 -37 52 -66
49 -103 89 -103 112 0 12 26 56 58 98 76 101 108 143 129 173 9 14 69 96 132
183 64 87 123 169 131 181 8 13 23 34 33 47 9 13 38 53 64 89 84 116 155 214
184 252 16 20 29 40 29 44 0 3 12 20 26 38 24 29 161 215 194 263 8 12 42 58
75 103 33 45 65 89 70 98 6 10 21 31 35 48 56 71 128 182 143 221 15 38 15 46
2 84 -20 56 -24 60 -138 143 -235 169 -281 196 -334 196 -66 0 -141 -65 -230
-200 -9 -14 -33 -45 -52 -69 -20 -25 -43 -55 -51 -67 -8 -12 -67 -91 -131
-176 -63 -84 -135 -180 -159 -213 -24 -33 -48 -64 -52 -70 -5 -5 -38 -50 -75
-100 -37 -49 -71 -94 -75 -100 -5 -5 -22 -28 -38 -50 -16 -22 -33 -44 -38 -50
-4 -5 -19 -26 -32 -45 -14 -19 -34 -46 -46 -60 -12 -14 -48 -61 -81 -106 -105
-146 -187 -256 -223 -300 -19 -23 -46 -59 -60 -79 -73 -105 -77 -106 -166 -30
-36 30 -75 55 -87 55 -27 0 -67 -26 -99 -65 -65 -78 -64 -105 7 -171 30 -29
55 -56 55 -60 0 -4 -24 -34 -53 -68 -29 -34 -68 -80 -86 -103 -43 -57 -67 -56
-123 3 -23 25 -73 75 -110 112 -37 36 -70 74 -74 84 -4 12 8 41 34 81 22 34
77 125 122 202 46 77 93 156 105 175 36 56 63 102 89 150 13 25 43 72 65 105
23 33 41 64 41 69 0 5 11 24 25 42 14 18 25 37 25 41 0 5 51 58 113 119 116
112 214 244 243 326 8 23 19 47 24 53 11 13 57 176 84 295 22 95 19 213 -5
218 -31 6 -46 -24 -52 -102 -8 -108 -93 -378 -134 -426 -13 -16 -23 -35 -23
-45 0 -9 -5 -26 -11 -38 -14 -28 -90 -97 -106 -97 -30 0 -38 139 -9 158 6 4
30 7 54 8 24 1 49 7 55 13 7 7 18 40 25 74 7 34 15 74 18 88 6 27 3 31 -48 70
-33 24 -36 49 -7 75 34 31 41 51 23 69 -11 11 -26 14 -50 9 -40 -7 -104 3
-104 16 0 6 31 10 69 10 66 0 70 1 100 35 34 39 41 79 15 89 -9 3 -31 6 -50 6
-38 0 -44 14 -14 30 24 13 25 29 3 67 -16 28 -15 33 12 106 28 78 46 104 64
93 5 -4 21 -31 34 -60 14 -30 35 -60 47 -66 19 -10 26 -8 51 16 16 15 29 37
29 48 0 33 -55 119 -97 154 -78 65 -76 61 -70 108 4 35 17 61 63 120 91 115
144 196 144 217 0 11 13 34 29 52 21 24 31 48 36 87 3 29 14 76 23 103 32 99
7 330 -49 452 -16 35 -40 100 -54 145 -14 46 -29 97 -34 113 -27 85 -34 163
-28 301 7 164 28 266 88 424 41 110 45 130 30 130 -25 0 -130 -116 -264 -291
-60 -78 -85 -64 -111 63 -10 45 -24 106 -31 133 -36 133 -62 579 -42 713 l8
52 -86 0 c-47 0 -85 -4 -85 -9z m106 -103 c-12 -49 -16 -114 -16 -270 0 -221
18 -373 60 -492 11 -33 20 -67 20 -76 0 -10 11 -42 25 -72 l24 -53 -24 -87
c-19 -72 -26 -130 -36 -335 -10 -221 -10 -262 5 -377 9 -71 19 -133 22 -138 9
-15 34 -8 34 10 1 81 33 432 44 487 9 39 20 96 25 127 6 32 19 77 31 102 11
25 20 56 20 70 0 30 64 153 76 146 5 -3 9 -68 10 -145 0 -111 5 -154 22 -210
11 -38 26 -108 32 -155 6 -46 13 -87 15 -90 2 -3 -3 -100 -11 -216 -11 -158
-21 -232 -40 -304 -40 -148 -65 -220 -96 -281 -15 -31 -28 -60 -28 -64 0 -19
-133 -205 -177 -247 -51 -50 -160 -139 -203 -167 -14 -9 -34 -24 -45 -34 -44
-40 -93 -29 -78 18 12 39 6 97 -14 123 -26 34 -69 44 -170 36 -101 -7 -112 4
-66 69 16 23 40 67 52 97 13 30 27 60 31 65 11 14 30 156 29 218 -1 76 -20
141 -43 145 -26 5 -33 -11 -41 -91 -11 -103 -58 -265 -94 -322 -41 -66 -117
-142 -163 -166 -29 -15 -59 -19 -132 -19 -109 0 -118 8 -86 70 26 51 35 134
21 188 -15 54 -39 53 -57 -3 -8 -22 -22 -58 -33 -80 -11 -22 -25 -55 -32 -74
-7 -19 -27 -50 -45 -68 -32 -33 -33 -33 -129 -33 -81 0 -103 4 -131 21 -85 52
-256 274 -293 381 -11 29 -26 67 -34 83 -9 17 -19 75 -22 130 -8 112 -17 145
-39 145 -50 0 -70 -179 -41 -346 10 -54 21 -104 26 -109 4 -6 15 -33 24 -60
19 -58 53 -112 108 -173 21 -24 37 -48 34 -55 -10 -31 -135 -9 -232 41 -88 45
-167 145 -192 242 -8 30 -19 60 -23 65 -13 16 -28 127 -35 260 -7 145 -11 165
-30 165 -26 0 -63 -91 -73 -181 -18 -167 32 -373 126 -516 48 -73 42 -87 -38
-91 -84 -3 -95 6 -193 153 -86 129 -99 155 -107 218 -4 35 -13 73 -19 85 -28
52 -67 336 -80 592 -12 211 -3 328 29 410 24 63 67 160 78 176 82 127 149 203
246 278 46 37 104 76 128 87 24 11 72 36 108 54 36 19 74 34 86 34 11 1 43 12
70 26 27 14 57 25 66 25 26 0 33 -21 12 -37 -49 -35 -174 -157 -200 -196 -16
-23 -36 -50 -44 -59 -16 -17 -56 -95 -85 -162 -21 -51 -7 -66 34 -37 17 13 31
26 31 30 0 4 8 16 18 27 10 10 35 42 55 69 82 108 249 263 362 336 22 14 58
37 80 51 65 42 216 118 275 138 30 10 87 30 125 44 39 15 115 33 170 41 55 8
145 29 200 46 55 17 108 33 118 36 84 23 337 162 435 237 115 88 114 88 130
72 12 -12 12 -23 -2 -78z m-2594 -1723 c-4 -211 5 -332 32 -454 8 -36 19 -100
24 -141 5 -41 24 -113 41 -160 18 -47 39 -107 47 -133 8 -26 35 -78 58 -115
53 -82 63 -110 42 -118 -8 -3 -24 0 -36 6 -23 13 -135 109 -207 178 -36 34
-50 41 -90 44 -62 4 -71 23 -85 166 -12 123 -5 452 11 497 6 17 15 71 20 120
14 129 96 329 131 323 13 -3 15 -32 12 -213z m3123 -315 c5 -31 0 -62 -25
-138 -33 -100 -50 -133 -50 -95 0 28 40 265 46 275 10 16 22 -2 29 -42z m-89
-316 c-3 -8 -10 -12 -16 -9 -7 4 -6 14 2 28 12 24 24 8 14 -19z m-256 -419
c11 -13 8 -29 -14 -93 -15 -42 -34 -99 -41 -127 -18 -61 -80 -125 -122 -125
-37 0 -57 -14 -50 -34 4 -10 18 -16 40 -16 20 0 47 -10 67 -25 19 -14 45 -25
58 -25 38 0 15 -18 -33 -26 -53 -7 -69 -24 -62 -63 l6 -28 -72 -6 c-40 -4 -82
-9 -94 -13 -29 -8 -30 12 -2 42 19 20 19 23 4 38 -9 9 -27 16 -40 16 -14 0
-32 11 -44 28 l-20 27 -62 -33 c-78 -43 -87 -36 -71 52 7 35 10 70 7 78 -10
27 32 76 77 88 101 27 295 134 383 211 62 54 67 56 85 34z m-603 -41 c52 -14
51 -90 -3 -252 -13 -40 -24 -90 -24 -112 0 -58 -15 -86 -59 -115 -40 -25 -125
-41 -396 -75 -49 -6 -153 -22 -231 -37 l-140 -25 -130 25 c-71 14 -167 29
-214 33 -124 9 -360 50 -396 69 -18 8 -36 21 -42 28 -13 17 -46 125 -71 237
-12 52 -27 114 -32 136 -8 31 -8 48 1 64 l12 23 572 -7 c451 -4 1055 2 1121
12 6 1 20 -1 32 -4z m-3480 -570 c28 -32 57 -69 64 -83 8 -14 19 -33 26 -41 7
-8 29 -35 48 -60 20 -25 47 -57 60 -73 14 -15 25 -32 25 -38 0 -10 82 -116
121 -156 12 -12 27 -33 34 -46 12 -23 32 -49 73 -95 12 -14 22 -31 22 -38 0
-8 11 -21 25 -30 14 -9 28 -27 31 -40 4 -14 12 -28 18 -32 18 -11 76 -94 76
-109 0 -7 11 -20 24 -28 14 -9 29 -30 35 -46 5 -16 17 -32 25 -35 8 -3 32 -31
53 -62 20 -32 44 -63 54 -69 9 -7 19 -24 23 -37 3 -13 18 -38 33 -54 16 -17
51 -60 78 -97 28 -36 62 -81 76 -98 15 -18 29 -42 33 -54 4 -13 12 -23 17 -23
5 0 9 -7 9 -15 0 -8 -2 -15 -4 -15 -10 0 -64 57 -76 80 -7 14 -24 39 -37 55
-82 103 -123 160 -123 171 0 6 -6 14 -14 17 -8 3 -30 30 -49 60 -20 30 -44 63
-55 73 -11 11 -23 30 -27 43 -4 14 -22 39 -39 57 -32 33 -103 123 -122 155 -6
10 -22 29 -35 43 -13 13 -35 40 -49 60 -45 66 -78 110 -105 141 -24 28 -87
110 -152 198 -15 21 -48 63 -73 95 -49 62 -69 89 -102 140 -41 65 -127 82
-189 38 -36 -25 -125 -88 -219 -154 -44 -31 -58 -47 -68 -83 -8 -24 -15 -50
-18 -57 -7 -23 -41 5 -54 43 -27 82 14 132 218 269 187 125 220 128 309 30z
m5478 31 c48 -34 63 -44 121 -82 15 -10 37 -25 49 -33 12 -8 35 -24 51 -35 17
-11 46 -38 65 -59 45 -52 47 -107 7 -155 -16 -18 -28 -37 -28 -43 0 -6 -14
-27 -30 -47 -41 -48 -44 -52 -65 -86 -11 -17 -25 -37 -32 -45 -7 -8 -34 -44
-61 -79 -26 -35 -59 -80 -74 -100 -15 -20 -36 -53 -47 -73 -12 -20 -25 -39
-31 -43 -9 -5 -74 -99 -125 -179 -10 -17 -23 -33 -27 -34 -5 -2 -28 -34 -52
-71 -24 -37 -51 -73 -60 -80 -9 -7 -16 -19 -16 -26 0 -7 -7 -19 -16 -26 -9 -8
-27 -29 -40 -49 -51 -75 -104 -148 -179 -245 -33 -42 -66 -88 -73 -101 -7 -14
-23 -35 -35 -48 -12 -13 -37 -45 -56 -72 -41 -60 -79 -90 -93 -76 -12 12 -2
33 46 93 53 66 65 82 84 110 36 55 58 85 93 129 20 25 45 60 55 78 10 17 21
32 25 32 3 0 27 30 53 68 26 37 60 85 77 107 16 22 40 56 53 75 13 19 31 41
40 49 9 7 16 17 16 22 0 5 24 40 53 79 133 177 207 280 207 289 0 5 12 19 27
31 14 11 34 37 43 58 9 20 33 57 54 80 20 24 36 48 36 53 0 4 8 16 18 26 58
59 102 134 102 177 0 42 -41 79 -243 216 -12 8 -35 25 -50 37 -23 19 -41 23
-93 23 -35 0 -64 3 -64 6 0 3 14 24 31 45 29 36 34 39 83 39 43 0 60 -6 101
-35z m-3623 -63 c144 -32 219 -60 349 -133 217 -120 386 -199 429 -199 24 0
61 12 102 34 35 18 74 37 87 41 14 4 90 44 170 88 184 102 284 143 391 163 47
8 95 20 108 26 30 15 110 -12 132 -44 8 -12 35 -41 59 -65 34 -33 42 -48 37
-66 -9 -36 -145 -216 -213 -280 -62 -59 -154 -125 -228 -164 -141 -74 -344
-148 -378 -137 -24 7 -174 137 -214 185 -41 48 -61 40 -188 -75 -68 -61 -126
-106 -143 -109 -17 -3 -63 7 -122 28 -279 97 -463 222 -602 410 -71 94 -100
148 -92 169 3 8 18 19 34 25 23 7 29 17 32 43 3 29 10 36 58 60 33 16 65 26
80 23 14 -2 64 -13 112 -23z m-1867 -390 c33 -11 78 -25 100 -31 70 -18 73
-24 99 -176 25 -146 22 -183 -12 -170 -9 3 -44 13 -77 21 -33 8 -73 20 -90 25
-16 6 -57 19 -90 28 -59 18 -60 18 -68 62 -9 49 1 211 14 248 11 27 26 26 124
-7z m5395 -4 c6 -18 14 -79 17 -135 8 -135 5 -139 -123 -180 -239 -75 -220
-83 -215 82 2 72 7 140 12 152 10 27 53 50 110 59 24 4 67 17 94 30 72 32 91
31 105 -8z m-5710 -118 c0 -5 -2 -10 -4 -10 -3 0 -8 5 -11 10 -3 6 -1 10 4 10
6 0 11 -4 11 -10z m4137 -27 c4 -10 -1 -22 -14 -32 -33 -27 -32 -44 1 -61 44
-22 40 -63 -16 -148 -24 -37 -58 -94 -75 -127 -31 -60 -46 -88 -118 -220 -20
-38 -54 -92 -75 -120 -43 -58 -326 -343 -365 -369 -26 -17 -27 -17 -22 1 3 10
13 47 22 82 8 36 19 69 24 75 9 11 63 151 76 196 4 14 18 45 31 70 13 25 24
50 24 56 0 7 -25 35 -55 62 -55 51 -64 69 -44 89 18 18 1 33 -39 33 -78 0 -85
45 -12 70 99 34 146 54 165 71 11 9 38 22 61 28 22 6 49 20 59 31 10 11 23 20
29 20 12 0 82 44 128 79 14 12 31 21 36 21 5 0 40 25 77 55 70 58 91 66 102
38z m-2286 -14 c13 -11 35 -30 49 -42 14 -12 38 -28 55 -35 16 -7 36 -19 45
-28 20 -20 103 -74 113 -74 4 0 25 -11 45 -25 20 -14 43 -25 51 -25 8 0 35
-13 60 -29 25 -16 81 -42 124 -57 44 -15 81 -33 84 -41 9 -23 -18 -43 -58 -43
-40 0 -58 -15 -40 -33 21 -21 11 -45 -30 -78 -22 -18 -44 -41 -48 -53 -10 -25
10 -104 37 -150 11 -18 23 -48 27 -66 7 -32 26 -80 70 -175 22 -47 25 -105 5
-105 -4 0 -34 28 -67 63 -33 34 -100 100 -149 147 -102 97 -170 181 -211 260
-16 30 -54 100 -83 155 -30 55 -61 114 -69 130 -9 17 -37 62 -64 102 -26 39
-47 81 -47 92 0 42 62 48 87 8 14 -22 166 -127 185 -127 30 0 20 25 -17 43
-19 9 -35 21 -35 27 0 6 -14 16 -31 22 -17 6 -34 21 -39 34 -6 16 -18 24 -32
24 -24 0 -88 63 -88 87 0 20 44 15 71 -8z m1195 -305 c28 -27 71 -65 94 -84
24 -19 55 -45 69 -57 60 -53 98 -86 136 -120 22 -19 57 -46 77 -59 60 -38 63
-53 33 -144 -15 -44 -30 -82 -35 -85 -5 -3 -16 -29 -26 -58 -9 -28 -20 -57
-25 -63 -5 -6 -16 -31 -24 -55 -40 -113 -92 -223 -112 -236 -34 -22 -513 -22
-548 1 -25 16 -52 69 -86 165 -10 30 -23 59 -28 65 -4 6 -16 34 -26 61 -10 28
-22 55 -27 61 -4 6 -17 37 -28 68 -10 31 -26 66 -34 78 -17 23 -21 85 -8 103
4 6 25 23 46 39 35 26 115 93 156 130 8 8 49 41 90 75 41 34 101 87 133 118
51 49 62 55 90 50 20 -3 51 -23 83 -53z m-2326 -33 c126 -39 195 -64 208 -74
9 -7 12 -56 12 -182 0 -148 -2 -174 -16 -179 -22 -8 -60 2 -124 35 -30 15 -80
39 -111 53 -32 15 -63 34 -70 43 -15 17 -27 288 -15 319 7 18 13 17 116 -15z
m4578 -130 c2 -138 2 -145 -21 -175 -16 -20 -44 -38 -77 -49 -29 -10 -75 -33
-103 -50 -37 -22 -63 -31 -96 -31 l-46 -1 -3 160 c-1 88 0 170 3 182 4 17 20
27 68 42 108 34 161 52 182 61 11 5 36 8 55 7 l35 -2 3 -144z m-4918 -32 c0
-6 -4 -7 -10 -4 -5 3 -10 11 -10 16 0 6 5 7 10 4 6 -3 10 -11 10 -16z m50 -70
c0 -6 -4 -7 -10 -4 -5 3 -10 11 -10 16 0 6 5 7 10 4 6 -3 10 -11 10 -16z m40
-49 c9 -16 8 -18 -5 -14 -8 4 -15 12 -15 20 0 20 7 17 20 -6z m60 -82 c0 -5
-4 -8 -10 -8 -5 0 -10 10 -10 23 0 18 2 19 10 7 5 -8 10 -18 10 -22z m59 -84
c3 -16 1 -17 -13 -5 -19 16 -21 34 -3 29 6 -3 14 -13 16 -24z m41 -50 c0 -8
-4 -14 -10 -14 -5 0 -10 9 -10 21 0 11 5 17 10 14 6 -3 10 -13 10 -21z m60
-74 c0 -25 -16 -26 -30 -1 -17 32 -13 43 10 31 11 -6 20 -20 20 -30z m1090
-40 c39 -39 28 -61 -80 -151 -36 -30 -105 -93 -155 -141 -150 -145 -164 -158
-173 -158 -6 0 -12 -6 -15 -14 -8 -21 32 -7 44 15 5 11 18 19 29 19 11 0 32
12 49 28 30 28 87 69 180 128 42 27 56 32 67 23 8 -6 14 -16 14 -21 0 -14 -53
-62 -140 -126 -41 -30 -93 -72 -115 -92 -22 -20 -50 -43 -61 -51 -12 -8 -56
-40 -98 -71 -68 -52 -116 -72 -116 -50 0 5 -6 16 -13 26 -18 25 -53 9 -124
-58 -69 -67 -98 -72 -137 -25 -47 56 -30 93 82 177 21 15 87 68 148 118 60 50
130 104 155 119 37 23 245 194 363 297 37 33 69 35 96 8z m2452 -11 c18 -17
49 -43 68 -57 19 -15 37 -30 40 -33 13 -15 160 -134 212 -172 53 -38 233 -178
291 -226 12 -11 52 -44 89 -75 73 -61 85 -83 67 -118 -40 -78 -69 -76 -167 7
-41 36 -83 65 -92 65 -9 0 -22 -11 -28 -25 -22 -48 -33 -42 -267 145 -33 27
-106 85 -162 129 -101 79 -123 111 -88 125 17 6 45 -2 45 -13 0 -8 78 -61 89
-61 4 0 18 -11 31 -25 13 -14 29 -25 36 -25 7 0 26 -11 41 -25 35 -32 100 -75
114 -75 6 0 -10 20 -34 45 -25 25 -49 45 -53 45 -4 0 -41 35 -83 77 -42 43
-119 114 -171 158 -52 44 -96 89 -98 99 -5 24 36 66 64 66 13 0 38 -14 56 -31z
m-3492 -24 c0 -8 -4 -15 -10 -15 -5 0 -10 7 -10 15 0 8 5 15 10 15 6 0 10 -7
10 -15z m48 -65 c3 -21 2 -22 -12 -11 -19 16 -21 44 -3 39 6 -3 14 -15 15 -28z
m56 -63 c12 -19 3 -32 -19 -24 -17 7 -21 51 -3 45 6 -2 16 -12 22 -21z m62
-105 c-12 -11 -36 9 -36 30 l1 23 20 -24 c11 -13 17 -26 15 -29z m1437 10 l20
-34 -26 -56 c-15 -32 -36 -90 -48 -131 -24 -81 -26 -66 24 -226 27 -85 177
-521 196 -568 6 -16 11 -41 11 -57 0 -24 -5 -31 -27 -36 -14 -4 -33 -3 -42 3
-8 5 -32 61 -53 124 -21 63 -47 132 -57 154 -11 22 -22 59 -26 82 -4 24 -11
45 -15 48 -5 3 -30 69 -56 148 -25 78 -52 154 -60 169 -24 46 -16 113 27 247
58 179 55 173 86 169 18 -2 33 -14 46 -36z m1311 16 c7 -13 24 -63 36 -113 13
-49 32 -114 42 -143 11 -30 18 -65 15 -80 -5 -24 -74 -224 -121 -351 -9 -24
-16 -51 -16 -60 0 -9 -7 -29 -16 -46 -9 -16 -31 -77 -51 -135 -19 -57 -43
-120 -53 -140 -10 -19 -21 -54 -25 -77 -8 -53 -33 -75 -77 -71 -28 3 -33 7
-36 33 -2 17 3 44 12 60 20 39 124 328 232 643 l55 163 -25 82 c-13 45 -34
105 -47 133 -25 59 -20 100 14 114 35 14 46 12 61 -12z m-1856 -160 c1 -8 -8
-19 -22 -26 -13 -6 -27 -19 -31 -29 -3 -10 -24 -31 -46 -48 -22 -16 -52 -42
-67 -56 -15 -14 -72 -63 -127 -109 -55 -46 -113 -96 -128 -111 -45 -47 -107
-31 -93 24 5 21 40 50 241 197 28 20 67 49 89 66 80 61 161 113 171 110 6 -1
11 -9 13 -18z m2380 -4 c7 -8 16 -14 20 -14 4 0 102 -71 217 -158 214 -160
234 -182 205 -218 -21 -24 -54 -16 -90 23 -19 20 -75 70 -125 110 -190 155
-299 258 -290 274 8 12 43 2 63 -17z m-334 -57 c17 -12 43 -52 87 -131 12 -22
27 -46 34 -53 8 -7 19 -29 25 -48 6 -19 16 -35 21 -35 5 0 16 -16 24 -36 8
-20 28 -50 45 -67 16 -17 30 -41 30 -54 0 -19 -3 -21 -22 -14 -13 4 -31 24
-41 45 -9 20 -26 45 -37 56 -11 11 -20 29 -20 40 0 11 -11 27 -24 35 -13 9
-27 27 -30 40 -3 13 -13 31 -22 40 -37 36 -104 157 -104 186 0 13 13 11 34 -4z
m315 -62 c9 -5 45 -38 81 -73 36 -35 82 -75 103 -89 20 -14 37 -29 37 -33 0
-5 16 -17 35 -29 37 -22 47 -51 17 -51 -10 0 -29 11 -42 25 -13 14 -29 25 -35
25 -11 0 -28 13 -130 102 -71 62 -165 158 -165 169 0 8 46 -13 99 -46z m-2309
36 c0 -19 -138 -149 -245 -230 -22 -16 -51 -39 -65 -49 -32 -25 -70 -37 -70
-23 0 13 37 51 49 51 5 0 12 9 16 19 3 11 14 22 23 25 10 3 41 28 70 56 29 27
56 50 61 50 4 0 12 9 17 20 5 11 34 35 64 55 55 34 80 43 80 26z m230 -16 c0
-31 -29 -105 -41 -105 -6 0 -19 -16 -30 -35 -11 -19 -29 -37 -40 -40 -11 -4
-22 -19 -26 -35 -3 -16 -14 -37 -24 -46 -11 -9 -19 -25 -19 -34 0 -10 -8 -28
-19 -41 -10 -13 -22 -39 -25 -56 -9 -40 -19 -47 -46 -33 -30 16 -28 77 4 89
12 5 32 24 44 43 12 18 37 56 56 83 20 28 36 55 36 60 0 24 62 132 87 152 36
29 43 29 43 -2z m999 -102 c17 -32 -13 -239 -49 -333 -29 -80 -49 -188 -65
-360 -3 -36 -8 -73 -11 -83 -7 -22 -55 -47 -90 -47 -15 0 -46 -11 -70 -25 -37
-22 -46 -23 -68 -13 -35 16 -33 42 10 113 35 60 50 96 104 255 53 157 90 283
90 306 0 29 41 144 64 179 20 30 70 35 85 8z m-1018 -142 c-11 -21 -26 -41
-34 -44 -7 -3 -19 -23 -25 -45 -7 -22 -19 -43 -27 -46 -9 -3 -20 -18 -26 -32
-16 -44 -71 -124 -85 -124 -7 0 -16 5 -19 10 -10 16 5 90 18 90 16 0 77 70 92
106 7 18 23 35 34 39 12 4 21 15 21 26 0 34 19 59 46 59 l24 0 -19 -39z m1767
-76 c7 -17 19 -41 27 -55 61 -109 92 -159 116 -187 30 -35 46 -90 31 -105 -18
-18 -52 2 -68 40 -8 20 -18 39 -23 42 -4 3 -26 32 -50 65 -23 33 -57 79 -76
103 -40 49 -47 104 -17 121 27 16 46 9 60 -24z m-1677 1 c17 -37 6 -64 -73
-169 -40 -54 -87 -119 -104 -145 -23 -34 -37 -47 -55 -47 -50 0 -27 73 58 185
11 14 36 55 56 92 34 61 77 108 99 108 4 0 13 -11 19 -24z m-503 -32 c29 -20
29 -59 0 -78 -13 -7 -66 -28 -118 -46 -52 -18 -100 -36 -106 -41 -6 -5 -36
-18 -66 -28 -30 -10 -63 -24 -74 -30 -32 -17 -162 -71 -173 -71 -6 0 -25 -9
-43 -20 -18 -11 -40 -20 -48 -20 -8 0 -26 -9 -40 -20 -33 -26 -53 -25 -86 3
-44 38 -29 67 59 111 40 20 79 36 86 36 7 0 29 11 49 25 20 14 40 25 45 25 11
0 143 56 179 76 15 8 56 21 90 29 35 8 92 25 128 38 80 30 90 31 118 11z
m2700 0 c32 -8 66 -20 77 -25 11 -6 47 -16 80 -23 33 -8 98 -30 145 -51 47
-20 104 -43 127 -52 23 -8 47 -21 54 -29 6 -7 28 -18 49 -24 21 -6 65 -25 97
-43 71 -40 82 -72 35 -106 -31 -22 -72 -28 -72 -11 0 6 -6 10 -14 10 -8 0 -40
14 -71 30 -31 17 -62 30 -68 30 -5 0 -33 11 -61 24 -137 64 -163 76 -191 82
-16 4 -43 14 -60 24 -16 9 -68 30 -115 45 -99 34 -110 40 -110 69 0 21 25 66
37 66 2 0 30 -7 61 -16z m-372 -19 c4 -14 4 -29 0 -32 -11 -11 -39 25 -33 41
9 24 26 19 33 -9z m68 -86 c44 -52 29 -89 -22 -53 -15 11 -22 25 -22 50 0 42
11 43 44 3z m-297 -17 c7 -4 19 -24 27 -44 9 -20 20 -39 25 -42 5 -4 28 -34
51 -69 24 -34 54 -71 68 -83 19 -16 25 -30 26 -65 1 -41 -1 -44 -24 -44 -19 0
-31 10 -50 46 -50 93 -96 163 -132 202 -56 60 -48 135 9 99z m-1537 -38 c0
-14 -34 -70 -72 -118 -13 -17 -37 -53 -55 -80 -17 -28 -43 -70 -58 -93 -30
-49 -48 -53 -71 -18 -21 32 -13 53 44 123 26 31 67 87 92 124 50 73 87 103
107 86 7 -6 13 -16 13 -24z m-513 -29 c20 -14 73 -134 73 -166 0 -9 -8 -23
-17 -32 -10 -8 -142 -57 -293 -107 -151 -51 -303 -103 -338 -117 -62 -24 -64
-24 -84 -6 -27 24 -58 86 -58 117 0 17 11 31 37 48 20 12 53 33 73 46 19 12
51 29 70 38 19 8 58 26 85 39 28 13 64 27 80 31 17 4 35 10 40 14 16 12 270
103 305 109 3 1 15 -6 27 -14z m2615 -10 c46 -13 119 -38 163 -55 44 -18 99
-38 122 -45 23 -8 59 -23 80 -33 21 -11 56 -28 77 -37 75 -31 176 -103 176
-125 0 -11 -14 -47 -32 -80 -23 -45 -36 -60 -53 -60 -11 0 -25 4 -30 9 -6 5
-136 51 -290 101 -359 118 -363 119 -370 138 -4 12 45 176 62 205 6 10 2 10
95 -18z m-628 -71 c8 -3 37 -48 63 -101 26 -52 55 -102 64 -111 8 -10 28 -38
42 -63 27 -45 27 -47 9 -69 -27 -34 -57 -18 -103 52 -21 34 -39 65 -39 70 0 5
-20 39 -45 76 -46 68 -53 98 -35 133 11 20 19 23 44 13z m-1416 -54 c2 -36 -3
-54 -23 -83 -14 -21 -25 -40 -25 -43 0 -2 -12 -23 -27 -47 -15 -23 -35 -58
-44 -77 -22 -48 -42 -62 -81 -58 -63 6 -50 47 73 229 10 15 21 39 25 53 9 35
53 78 78 74 17 -2 22 -11 24 -48z m-1467 -56 c5 -15 21 -40 34 -56 14 -16 25
-38 25 -48 0 -11 10 -38 21 -60 12 -23 25 -69 29 -103 5 -34 13 -80 19 -102
21 -78 11 -235 -23 -365 -8 -30 -22 -93 -32 -140 -10 -47 -28 -101 -39 -120
-12 -19 -25 -45 -29 -58 -4 -13 -44 -60 -89 -105 -80 -80 -163 -138 -223 -156
-96 -29 -144 -45 -179 -61 -22 -10 -69 -23 -105 -30 -36 -6 -72 -18 -81 -26
-9 -8 -67 -23 -130 -34 -63 -11 -136 -24 -164 -29 -27 -6 -129 -17 -225 -26
-96 -9 -191 -20 -210 -25 -19 -5 -57 -10 -84 -12 -46 -3 -49 -2 -51 23 -2 15
-12 57 -23 95 -38 131 -36 216 4 222 16 2 22 -8 37 -65 13 -51 27 -78 57 -110
l39 -43 159 0 c104 0 189 6 243 16 46 9 119 19 162 24 58 6 87 14 115 33 20
15 66 34 102 43 36 9 95 32 131 50 36 19 70 34 76 34 6 0 17 7 24 16 8 9 31
28 53 42 49 30 188 170 236 235 19 26 40 53 45 60 27 33 68 103 81 139 7 21
22 52 33 67 27 37 41 164 37 311 -5 134 -11 165 -41 202 -13 15 -25 42 -29 61
-3 18 -17 44 -31 57 -31 29 -34 70 -5 70 13 0 24 -10 31 -26z m4343 -45 c-15
-30 -35 -63 -44 -74 -9 -11 -28 -57 -43 -101 -23 -69 -27 -98 -27 -198 0 -77
5 -128 14 -153 8 -21 20 -58 27 -83 6 -25 20 -57 30 -72 11 -15 25 -42 31 -60
6 -18 20 -44 30 -58 11 -14 37 -49 57 -78 95 -130 280 -297 361 -324 19 -6 46
-19 60 -30 14 -10 58 -27 98 -39 40 -11 97 -33 128 -50 33 -17 71 -29 93 -29
21 0 87 -9 147 -20 79 -14 153 -20 268 -20 l159 0 37 39 c25 26 43 59 56 100
10 34 24 67 32 74 22 17 42 -18 42 -73 0 -60 -38 -213 -56 -223 -8 -4 -14 -15
-14 -22 0 -18 -80 -21 -126 -5 -16 5 -106 16 -200 25 -95 9 -194 20 -220 24
-223 39 -291 54 -304 66 -9 8 -51 21 -94 30 -43 8 -83 18 -90 23 -6 5 -45 19
-86 32 -146 44 -216 83 -311 174 -116 112 -165 234 -214 542 -14 85 -15 121
-6 228 8 87 17 141 31 171 11 24 20 49 20 56 0 26 72 159 97 179 40 31 47 10
17 -51z m-4489 14 c20 -21 61 -75 91 -120 47 -71 55 -90 57 -135 2 -47 0 -53
-19 -56 -11 -2 -45 9 -75 24 -51 26 -63 28 -254 34 -155 6 -210 4 -245 -6 -25
-8 -57 -14 -72 -14 -23 0 -28 4 -28 25 0 23 25 44 154 127 6 4 28 14 49 22 20
8 37 22 37 30 0 10 14 18 37 22 21 4 74 24 118 45 44 21 88 38 98 38 9 1 33
-16 52 -36z m4703 23 c54 -29 145 -66 163 -66 10 0 31 -13 46 -30 14 -17 36
-30 49 -30 12 0 33 -9 46 -20 12 -11 51 -38 86 -60 49 -32 62 -46 62 -66 0
-35 -17 -38 -89 -15 -57 18 -79 19 -262 11 -188 -7 -202 -9 -250 -34 -60 -31
-104 -34 -118 -7 -8 14 -5 25 14 47 13 16 27 40 30 55 14 63 144 229 179 229
10 0 30 -6 44 -14z m-5009 -32 c12 -10 -13 -32 -43 -38 -19 -4 -41 -15 -48
-25 -7 -10 -33 -27 -58 -38 -25 -11 -67 -40 -95 -65 -50 -45 -90 -64 -100 -47
-3 5 -1 26 5 48 20 75 99 128 255 170 26 7 73 4 84 -5z m5366 -16 c55 -17 109
-38 119 -47 30 -25 76 -102 76 -127 0 -50 -29 -40 -121 41 -28 25 -64 49 -80
52 -17 3 -37 16 -45 28 -9 13 -30 26 -50 30 -38 7 -56 32 -33 46 20 13 25 12
134 -23z m-2075 -77 c32 -70 26 -85 -37 -89 -42 -2 -52 0 -57 15 -12 39 32
137 58 127 7 -3 23 -27 36 -53z m-1292 -6 c9 -28 10 -46 3 -61 -11 -25 -59
-39 -92 -29 -18 6 -20 13 -16 41 3 19 16 48 27 65 31 42 61 36 78 -16z m-486
-21 c28 -64 17 -86 -53 -103 -30 -7 -92 -26 -139 -41 -47 -15 -101 -31 -120
-35 -19 -4 -39 -11 -45 -15 -5 -4 -37 -15 -70 -25 -33 -9 -69 -22 -80 -29 -11
-8 -36 -17 -55 -21 -19 -4 -57 -18 -84 -32 -64 -31 -85 -27 -113 22 -45 79
-21 113 100 140 43 9 102 27 131 41 29 13 75 28 102 33 27 6 92 26 144 45 52
20 104 36 115 36 11 1 34 7 50 15 17 7 45 14 63 14 30 1 35 -3 54 -45z m2329
26 c41 -11 117 -35 169 -53 52 -19 112 -37 134 -41 21 -4 61 -18 90 -31 28
-12 85 -31 126 -40 92 -22 109 -30 119 -58 10 -24 -9 -79 -36 -109 -20 -22
-61 -23 -84 -2 -9 8 -43 22 -76 31 -32 8 -62 18 -68 23 -5 4 -39 17 -75 28
-36 12 -119 39 -185 60 -66 22 -145 45 -175 52 -72 17 -90 27 -90 50 0 40 41
110 65 110 6 0 45 -9 86 -20z m-1589 -87 c96 -102 188 -225 198 -265 33 -134
46 -148 74 -79 18 47 40 61 95 61 21 0 60 9 86 20 60 26 80 25 99 -2 23 -32
20 -73 -6 -101 -30 -32 -108 -63 -180 -72 -49 -5 -62 -3 -87 14 -35 26 -47 26
-56 4 -9 -25 -45 -210 -45 -234 0 -29 -97 -284 -145 -379 -122 -245 -154 -281
-202 -226 -30 35 -29 54 6 102 32 44 191 349 191 367 0 7 7 26 16 42 9 17 32
75 52 130 32 92 35 110 36 220 1 116 0 122 -29 175 -16 30 -65 89 -107 131
-71 70 -91 103 -71 122 15 16 41 5 75 -30z m-2734 -31 c2 -13 -4 -38 -12 -57
-9 -18 -16 -40 -16 -48 0 -35 -33 -88 -108 -172 -43 -50 -95 -112 -114 -140
-25 -36 -41 -50 -58 -50 -21 0 -27 9 -42 55 -27 86 -23 123 15 167 57 67 110
118 202 196 94 80 127 92 133 49z m6273 -14 c96 -77 265 -252 273 -281 5 -21
1 -38 -14 -61 -11 -19 -20 -44 -20 -58 0 -13 -6 -33 -14 -43 -13 -18 -14 -17
-34 6 -11 13 -55 66 -98 118 -44 51 -94 111 -112 131 -21 25 -35 56 -41 87 -6
27 -18 63 -27 79 -20 35 -13 64 15 64 10 0 43 -19 72 -42z m-3047 -2 c41 -38
45 -62 15 -99 -24 -31 -129 -67 -194 -67 -38 0 -47 4 -75 40 -17 21 -32 52
-33 66 -2 24 4 30 48 47 149 57 191 59 239 13z m-2350 -139 c21 -6 45 -22 54
-35 35 -54 -26 -245 -136 -419 -41 -64 -82 -69 -113 -14 -31 53 -167 138 -304
188 -41 15 -80 18 -220 18 -165 0 -172 -1 -225 -27 -30 -15 -66 -28 -79 -28
-48 0 -14 54 137 220 40 45 45 47 110 53 37 3 103 15 147 26 44 12 116 25 160
30 98 12 416 4 469 -12z m5011 -8 c55 -12 134 -26 175 -33 41 -6 83 -16 94
-22 23 -14 174 -191 189 -222 23 -49 -12 -47 -123 6 -51 25 -295 29 -382 7
-123 -31 -311 -138 -345 -196 -36 -61 -76 -43 -135 60 -65 115 -79 145 -90
195 -6 28 -19 68 -30 90 -43 84 10 126 172 137 162 11 361 2 475 -22z m-3193
-148 c80 -78 81 -80 75 -121 -3 -23 -21 -74 -41 -113 -19 -40 -42 -92 -51
-117 -9 -24 -22 -54 -29 -65 -7 -11 -19 -38 -26 -60 -7 -22 -18 -51 -26 -65
-7 -14 -27 -59 -45 -100 -47 -111 -63 -142 -76 -147 -24 -9 -62 30 -99 104
-49 97 -50 144 -5 263 77 205 94 249 121 310 15 36 35 83 45 105 25 59 43 85
61 85 9 0 52 -36 96 -79z m-257 43 c19 -20 14 -56 -15 -96 -28 -38 -59 -124
-66 -183 -4 -27 -18 -72 -31 -98 -13 -26 -28 -71 -33 -100 -7 -34 -29 -81 -65
-138 -30 -48 -66 -111 -79 -141 -17 -39 -42 -69 -92 -113 -38 -32 -92 -79
-119 -105 -28 -25 -69 -60 -92 -78 -23 -18 -54 -45 -70 -58 -99 -88 -256 -215
-298 -241 -27 -18 -72 -55 -100 -83 -28 -29 -58 -50 -71 -50 -15 0 -52 38
-127 129 -59 72 -111 141 -117 155 -11 29 11 100 54 182 14 27 26 53 26 58 0
5 16 40 36 79 19 38 44 93 55 121 11 28 33 78 49 111 15 33 43 92 60 130 81
178 145 297 169 314 37 26 249 107 301 116 24 4 67 15 94 25 59 20 346 65 503
79 6 1 19 -6 28 -15z m1530 -13 c50 -5 131 -19 180 -30 50 -11 133 -29 185
-41 52 -11 107 -27 122 -35 14 -8 31 -15 38 -15 6 0 46 -14 88 -31 87 -34 136
-76 153 -128 7 -20 29 -71 51 -113 21 -42 38 -80 38 -83 0 -5 51 -117 111
-241 16 -34 29 -64 29 -67 0 -6 63 -142 131 -283 43 -90 39 -114 -25 -187 -29
-34 -67 -77 -82 -96 -16 -19 -75 -85 -131 -147 -111 -122 -111 -122 -40 -152
31 -13 47 -47 47 -98 0 -19 5 -55 11 -80 14 -53 2 -74 -42 -74 -21 0 -33 7
-40 23 -6 12 -35 42 -65 67 -62 51 -114 119 -114 148 0 11 11 27 25 36 29 19
32 50 7 68 -69 49 -320 292 -555 539 -71 74 -174 170 -229 214 -55 44 -120 97
-145 118 -25 21 -76 54 -114 73 -66 33 -71 34 -99 19 -41 -21 -49 -19 -97 19
-46 36 -125 54 -183 41 -30 -7 -35 -1 -24 29 4 11 19 16 44 16 34 0 47 8 105
65 75 74 93 110 102 199 5 61 5 62 -35 109 -57 65 -61 85 -27 115 l28 24 231
-5 c127 -3 272 -10 321 -16z m-4397 -158 c5 -10 14 -57 21 -104 l13 -86 -40
-79 c-21 -43 -42 -96 -46 -116 -10 -58 -34 -106 -57 -118 -41 -23 -47 -9 -47
117 -1 115 0 120 41 223 41 104 82 180 98 180 5 0 12 -8 17 -17z m3776 -5 c39
-55 6 -99 -100 -135 -85 -28 -226 -42 -249 -23 -18 15 -19 49 -2 70 25 30 57
53 79 55 13 1 56 6 96 10 47 5 80 13 95 26 30 25 63 24 81 -3z m3322 -15 c8
-21 23 -56 34 -78 29 -62 60 -161 60 -192 0 -15 -7 -63 -14 -107 -22 -121 -45
-127 -72 -20 -9 32 -33 97 -53 144 -38 84 -38 86 -32 178 4 66 10 95 21 102
27 17 41 11 56 -27z m-6356 -92 c140 -43 180 -59 211 -86 16 -13 53 -37 84
-55 44 -25 55 -36 55 -57 0 -32 -59 -88 -177 -168 -78 -54 -87 -57 -126 -51
-23 4 -55 17 -72 30 -52 39 -72 47 -193 66 -146 25 -349 27 -392 5 -16 -8 -43
-16 -62 -17 -52 -5 -50 34 6 129 25 41 46 81 46 88 0 28 62 75 118 91 31 8 82
24 112 34 41 14 86 19 175 19 105 1 132 -3 215 -28z m5954 4 c43 -14 85 -25
93 -25 48 0 153 -97 153 -142 0 -7 11 -30 25 -50 37 -55 47 -86 34 -110 -12
-22 -24 -21 -94 6 -53 20 -257 21 -362 1 -43 -8 -90 -15 -104 -15 -14 0 -56
-18 -93 -41 -91 -55 -124 -59 -179 -24 -97 64 -133 90 -154 109 -12 12 -32 29
-43 39 -11 9 -20 29 -20 45 0 24 11 35 67 73 37 24 72 47 77 52 24 16 116 52
201 78 128 38 286 40 399 4z m-2949 -84 c3 -6 -3 -15 -14 -21 -11 -5 -26 -22
-33 -37 -10 -20 -26 -31 -63 -41 -107 -30 -138 -46 -148 -77 -6 -16 -39 -73
-74 -127 -34 -54 -63 -100 -63 -103 0 -2 -37 -60 -82 -128 -46 -69 -87 -132
-93 -142 -12 -20 -45 -10 -45 14 0 9 16 41 36 71 53 82 184 354 184 383 0 33
25 102 50 138 20 28 25 29 98 29 102 0 194 16 204 35 10 17 34 20 43 6z m55
-272 c24 -16 48 -35 52 -42 4 -7 8 -43 8 -82 0 -110 25 -122 50 -25 22 87 35
112 63 126 34 18 43 13 62 -33 13 -32 14 -42 1 -77 -41 -119 -50 -292 -22
-401 20 -73 20 -119 3 -134 -18 -14 -21 -10 -57 65 -17 37 -39 111 -51 176
-33 173 -32 170 -40 96 -4 -37 -10 -72 -13 -77 -4 -6 -22 -13 -42 -17 -26 -5
-40 -2 -55 12 -12 10 -41 19 -74 22 -38 3 -55 9 -55 18 0 22 44 34 117 34 67
0 103 16 103 46 0 7 -27 41 -60 75 -68 70 -96 78 -149 40 -25 -18 -31 -29 -31
-60 0 -59 -59 -106 -87 -68 -5 6 -15 42 -22 78 -15 78 -9 93 62 150 151 122
165 127 237 78z m-3360 -59 c130 -12 180 -25 180 -46 0 -20 -60 -44 -107 -44
-21 0 -78 -7 -127 -15 -49 -7 -160 -19 -248 -26 -148 -11 -159 -11 -178 6 -25
22 -25 36 -2 65 13 16 39 26 97 37 182 34 231 36 385 23z m6498 -16 c125 -23
135 -27 149 -54 15 -30 2 -57 -32 -66 -26 -6 -270 11 -370 26 -33 5 -100 14
-149 19 -88 10 -116 22 -116 47 0 47 320 65 518 28z m-4198 -60 c37 -97 73
-146 180 -246 54 -52 90 -93 90 -105 0 -34 -21 -83 -36 -83 -42 0 -178 119
-232 204 -15 23 -44 63 -66 89 -38 47 -39 49 -33 108 7 64 31 112 55 107 8 -2
27 -35 42 -74z m1565 -182 c107 -102 238 -226 273 -262 49 -49 64 -90 57 -153
l-7 -52 21 25 c43 54 61 -25 37 -168 -13 -80 -19 -97 -43 -118 -32 -27 -38
-28 -82 -13 -39 14 -40 27 -1 41 17 5 36 22 44 37 24 49 39 109 32 128 -6 15
-9 14 -21 -13 -10 -24 -22 -33 -54 -41 -38 -10 -48 -8 -139 32 -165 74 -241
114 -250 132 -10 21 1 464 13 482 13 23 58 1 120 -57z m-1686 11 c6 -21 11
-43 11 -49 0 -6 13 -28 30 -50 16 -21 30 -43 30 -47 0 -5 -18 -29 -40 -54 -22
-25 -40 -49 -40 -53 0 -13 -42 -19 -61 -10 -29 16 -109 145 -109 176 1 39 97
124 140 124 25 0 31 -5 39 -37z m816 -39 c23 -9 45 -57 45 -100 0 -35 -8 -46
-102 -137 -56 -54 -115 -105 -132 -114 -17 -9 -42 -27 -55 -40 -16 -15 -34
-23 -50 -21 -44 5 -36 33 21 78 29 23 80 68 114 101 61 59 61 60 56 108 -4 45
-2 51 33 90 39 43 43 45 70 35z m3956 -33 c19 -19 29 -40 29 -58 0 -16 7 -53
15 -81 15 -49 15 -54 -5 -91 -39 -77 -51 -69 -85 58 -46 172 -27 244 46 172z
m-7690 -2 c11 -21 10 -48 -9 -184 -15 -102 -31 -117 -77 -70 -29 29 -32 75
-11 159 28 107 69 147 97 95z m967 -75 c20 -14 22 -21 16 -67 -14 -118 -34
-240 -43 -270 -5 -18 -20 -65 -32 -106 -35 -117 -113 -223 -250 -340 -124
-106 -95 -87 -321 -204 -73 -38 -145 -79 -161 -93 -16 -13 -32 -24 -35 -24 -4
0 -28 -20 -55 -45 -26 -25 -58 -52 -72 -61 -13 -8 -34 -36 -45 -60 -12 -24
-28 -44 -36 -44 -17 0 -74 111 -74 145 0 21 11 30 68 59 146 74 339 203 477
319 190 160 363 381 424 542 48 127 53 141 58 188 4 33 12 52 27 62 25 19 27
19 54 -1z m5760 -8 c10 -14 27 -62 36 -108 46 -215 233 -479 496 -700 70 -58
289 -208 305 -208 7 0 28 -12 47 -27 20 -16 61 -41 92 -58 58 -31 69 -45 60
-70 -10 -24 -52 -17 -92 14 -20 15 -71 42 -112 59 -41 17 -88 38 -105 46 -16
9 -36 16 -43 16 -19 0 -244 112 -267 133 -11 10 -31 21 -45 24 -14 4 -37 18
-51 32 -15 14 -41 37 -60 51 -67 51 -229 231 -229 255 0 4 -17 41 -37 83 -30
63 -38 93 -44 167 -4 49 -10 104 -13 120 -3 17 -8 60 -11 97 -4 53 -2 69 11
82 22 22 39 20 62 -8z m-4041 2 c6 -7 13 -26 17 -42 4 -15 25 -52 46 -80 52
-69 51 -87 -5 -120 -25 -15 -51 -40 -60 -55 -14 -28 -33 -41 -59 -41 -21 0
-105 91 -127 137 -26 54 -19 97 19 117 15 8 45 33 67 55 40 42 82 54 102 29z
m4358 -13 c50 -8 117 -17 150 -20 50 -5 225 -34 301 -50 30 -7 117 -180 103
-206 -12 -22 -42 -24 -95 -6 -22 8 -65 15 -97 16 -31 1 -90 11 -130 22 -39 11
-101 24 -137 30 -36 6 -74 17 -86 24 -12 8 -53 23 -92 35 -90 27 -122 61 -122
125 0 59 10 61 205 30z m-6245 0 c11 -13 10 -23 -1 -57 -15 -45 -65 -89 -127
-109 -20 -7 -53 -20 -72 -30 -19 -10 -65 -23 -102 -29 -37 -6 -80 -15 -95 -21
-37 -15 -247 -49 -300 -49 -49 0 -68 22 -57 67 10 44 73 151 92 157 30 10 244
45 342 56 52 6 113 15 135 19 71 15 171 13 185 -4z m3297 -10 c47 -7 66 -24
57 -50 -6 -14 -15 -16 -48 -11 -23 4 -79 9 -126 12 -105 7 -118 10 -101 27 12
12 134 36 161 31 8 -1 34 -5 57 -9z m-1047 -66 c0 -31 -314 -359 -589 -615
-41 -38 -96 -89 -121 -114 -80 -77 -270 -245 -350 -312 -156 -128 -197 -158
-216 -158 -27 0 -33 7 -87 110 -24 47 -63 117 -85 155 -47 82 -56 115 -39 139
21 29 45 8 95 -81 48 -87 104 -146 149 -158 41 -10 213 101 369 240 6 6 40 35
75 65 139 120 282 255 600 567 165 162 199 190 199 162z m1041 -67 c76 -21
108 -41 129 -81 48 -91 147 -194 274 -286 34 -24 75 -55 92 -69 36 -30 171
-96 195 -96 24 0 42 -26 34 -50 -16 -52 -222 2 -383 101 -48 29 -88 56 -90 60
-2 5 -24 23 -50 42 -26 18 -75 59 -108 90 -34 31 -66 57 -71 57 -6 0 -18 9
-28 20 -39 43 -140 34 -133 -12 2 -16 16 -27 48 -39 75 -28 81 -80 10 -99 -55
-15 -90 7 -123 74 -34 71 -41 107 -23 131 12 17 30 21 108 25 73 4 93 8 93 20
0 17 -79 49 -145 59 -37 5 -46 10 -48 29 -2 16 3 25 20 31 38 16 129 12 199
-7z m-889 -27 c18 -20 33 -41 33 -48 0 -7 -22 -14 -58 -18 -37 -4 -66 -14 -80
-26 -12 -11 -34 -23 -49 -27 -44 -10 -36 23 23 93 61 73 82 77 131 26z m-802
-25 c10 -5 28 -29 39 -52 12 -24 41 -65 66 -92 25 -27 45 -57 45 -67 0 -18
-38 -53 -68 -64 -9 -3 -39 -33 -66 -65 -65 -79 -83 -79 -157 -2 -86 89 -101
147 -51 202 24 27 162 148 170 149 2 1 12 -3 22 -9z m1383 -41 c15 -55 -85
-149 -251 -235 -36 -19 -70 -38 -76 -42 -6 -5 -31 -15 -56 -22 -25 -8 -73 -27
-107 -42 -42 -19 -79 -28 -113 -28 l-50 0 15 24 c9 14 30 27 49 30 100 19 399
201 476 290 57 66 58 66 84 55 13 -6 26 -20 29 -30z m-3068 -9 c6 -10 -100
-177 -144 -228 -20 -23 -56 -32 -196 -48 -27 -3 -66 -10 -85 -16 -50 -15 -234
-94 -279 -120 -49 -28 -71 -20 -71 26 0 19 4 45 9 58 6 13 12 39 16 59 3 20
17 49 30 63 23 25 30 27 71 20 31 -4 64 -1 102 9 32 9 91 25 132 36 149 39
314 105 341 137 13 16 65 19 74 4z m6286 -6 c19 -23 106 -65 164 -79 28 -7 73
-22 100 -33 79 -33 224 -65 296 -66 50 -1 72 -6 87 -19 21 -19 44 -110 46
-182 1 -38 0 -40 -28 -38 -16 1 -43 15 -60 32 -17 16 -42 32 -56 36 -14 4 -61
22 -105 41 -98 41 -177 57 -275 59 -41 0 -81 4 -88 9 -15 9 -92 112 -92 123
-1 4 -14 24 -30 43 -18 20 -30 46 -30 62 0 24 4 28 29 28 16 0 34 -7 42 -16z
m-7087 -93 c39 -117 33 -145 -25 -121 -55 23 -75 102 -45 175 22 51 40 36 70
-54z m7876 39 c26 -52 26 -60 -11 -125 -33 -59 -40 -63 -59 -40 -13 15 -9 122
6 182 10 37 41 29 64 -17z m-2569 -123 c56 -51 62 -76 45 -191 -13 -87 -30
-135 -44 -122 -2 3 -8 53 -12 111 -7 94 -19 139 -35 124 -2 -3 -7 -56 -11
-118 -8 -130 -15 -142 -98 -166 -47 -14 -176 -21 -176 -10 0 18 37 73 62 94
34 27 103 118 111 146 3 11 11 39 17 63 8 31 16 42 30 42 10 0 28 14 40 30 12
17 24 30 28 30 4 -1 23 -15 43 -33z m-3104 -29 c5 -7 15 -31 21 -54 8 -27 29
-57 67 -93 30 -29 55 -59 55 -66 0 -8 -12 -22 -27 -32 -14 -10 -56 -48 -91
-85 -42 -44 -73 -68 -87 -68 -51 0 -110 96 -121 196 -8 74 4 101 75 167 51 47
89 60 108 35z m1677 -50 c29 -45 103 -101 147 -112 15 -3 51 -1 80 4 43 8 60
17 82 45 16 19 33 35 37 35 4 0 42 -28 83 -62 168 -140 312 -226 449 -269 117
-37 129 -48 104 -93 -25 -46 -84 -105 -113 -112 -42 -11 -329 15 -396 36 -34
11 -87 24 -117 31 -68 14 -211 89 -267 140 -24 22 -52 39 -63 39 -11 0 -37
-15 -57 -34 -67 -60 -206 -131 -287 -147 -26 -5 -77 -18 -112 -29 -69 -21
-347 -47 -391 -35 -30 7 -143 122 -143 145 1 20 18 41 58 69 22 16 66 28 145
41 61 10 144 30 182 44 39 14 78 26 88 26 9 0 35 11 57 25 22 14 43 25 47 25
19 1 135 67 181 104 8 6 42 37 75 68 35 32 71 58 83 58 14 0 30 -14 48 -42z
m-3958 -114 c6 -27 17 -60 24 -73 13 -25 11 -44 -13 -164 -16 -77 -22 -87 -42
-66 -19 19 -65 145 -65 177 0 29 38 150 53 170 17 22 31 7 43 -44z m8031 9
c18 -91 3 -300 -22 -309 -7 -3 -24 5 -36 17 l-23 23 -7 -28 c-10 -35 -27 -56
-47 -56 -14 0 -149 59 -182 80 -8 6 -31 18 -51 29 -53 29 -192 127 -229 161
-62 58 -15 77 81 31 35 -16 87 -35 114 -41 28 -7 73 -21 100 -32 28 -11 67
-25 88 -30 39 -11 77 -49 77 -77 0 -17 18 -41 31 -41 4 0 9 42 11 93 5 110 39
217 69 217 13 0 20 -11 26 -37z m-2112 -6 c11 -7 42 -21 68 -31 56 -21 94 -64
139 -157 49 -102 51 -269 3 -269 -7 0 -34 17 -59 38 -51 43 -154 109 -208 134
-30 13 -38 24 -44 53 -4 21 -2 47 4 60 7 15 9 51 5 91 -5 58 -4 69 12 80 24
18 55 18 80 1z m-5365 -35 c0 -23 -45 -65 -147 -136 -83 -57 -304 -176 -329
-176 -22 0 -26 18 -19 85 7 60 9 65 46 89 21 14 47 26 56 26 10 0 41 11 68 25
28 13 59 25 70 25 25 0 84 21 155 54 66 31 100 34 100 8z m1473 -56 c6 -65 25
-104 72 -149 55 -53 49 -78 -28 -122 -80 -44 -107 -45 -142 -4 -32 39 -85 153
-85 185 0 38 114 144 155 144 20 0 23 -7 28 -54z m3546 -58 c31 -23 61 -49 68
-59 7 -9 26 -19 42 -22 18 -4 32 -14 36 -28 4 -11 21 -27 38 -35 18 -7 50 -29
72 -48 38 -33 39 -35 16 -36 -23 0 -86 36 -121 69 -8 8 -29 20 -46 27 -18 8
-35 18 -38 22 -3 5 -35 26 -71 47 -63 37 -86 68 -70 94 9 16 13 15 74 -31z
m756 -23 c75 -37 129 -94 141 -148 3 -17 13 -41 20 -52 21 -32 46 -156 41
-198 -3 -21 -11 -44 -17 -52 -18 -21 -67 -18 -98 6 -63 48 -119 79 -144 79
-18 0 -33 9 -44 26 -15 23 -16 34 -4 110 12 75 11 94 -4 164 -9 44 -14 85 -11
90 11 18 51 10 120 -25z m-817 -100 c17 -14 33 -25 37 -25 3 0 36 -22 73 -50
36 -27 71 -50 78 -50 6 0 19 -9 28 -19 10 -11 48 -40 84 -65 135 -92 191 -132
382 -274 107 -80 199 -149 205 -154 34 -28 150 -118 189 -148 65 -49 126 -106
126 -119 0 -18 46 -13 71 7 35 29 73 199 84 385 6 93 9 108 23 105 39 -8 62
-121 62 -308 0 -69 7 -193 16 -277 14 -124 15 -155 4 -168 -7 -8 -15 -15 -19
-15 -14 0 -121 108 -121 122 0 8 -19 33 -41 54 -23 22 -51 49 -63 60 -12 12
-36 25 -53 28 -18 4 -33 11 -33 15 0 9 -120 95 -172 123 -16 9 -40 25 -52 35
-11 11 -41 32 -66 48 -25 17 -77 55 -116 85 -39 30 -86 66 -104 80 -19 14 -48
36 -64 50 -17 14 -41 32 -52 40 -19 13 -159 118 -223 167 -13 10 -34 25 -46
33 -12 8 -66 45 -120 83 -86 59 -102 67 -144 67 -26 0 -55 6 -65 13 -15 11
-16 16 -2 47 8 19 18 38 22 43 14 14 43 7 72 -18z m1167 -69 c35 -33 45 -49
45 -75 0 -17 7 -48 16 -69 21 -49 38 -236 24 -263 -6 -10 -17 -19 -24 -19 -25
0 -164 69 -170 85 -3 8 1 60 9 114 15 97 14 107 -12 225 -4 21 -1 33 11 42 24
17 50 7 101 -40z m-5015 -33 c6 -16 21 -50 34 -78 14 -27 31 -70 38 -95 24
-80 98 -196 142 -221 33 -19 43 -20 75 -10 21 6 46 20 56 31 19 21 45 27 45
11 0 -6 -13 -18 -30 -28 -16 -9 -30 -21 -30 -25 0 -4 -5 -8 -11 -8 -5 0 -31
-16 -56 -35 -25 -19 -53 -35 -63 -35 -9 0 -29 -13 -45 -30 -30 -31 -59 -38
-71 -18 -5 7 -16 47 -26 88 -32 142 -58 229 -77 262 -10 18 -22 44 -26 58 -4
14 -16 37 -26 52 -24 34 -24 63 1 88 29 29 59 26 70 -7z m1297 -40 c69 -108
172 -227 338 -390 330 -326 642 -596 686 -596 19 0 48 18 95 59 38 32 82 70
98 84 17 14 59 52 95 85 86 78 85 77 182 165 232 209 435 425 536 573 35 51
65 61 83 27 11 -21 -2 -60 -20 -60 -9 0 -23 -14 -135 -140 -85 -96 -333 -354
-589 -613 -161 -163 -235 -231 -258 -238 -70 -20 -200 -6 -230 25 -7 7 -149
152 -315 322 -308 316 -384 396 -463 484 -25 27 -73 78 -107 113 -62 61 -75
91 -51 115 19 19 36 14 55 -15z m2973 2 c7 -9 10 -18 6 -22 -9 -10 -59 10 -64
25 -6 18 43 15 58 -3z m-1888 -55 c29 -28 64 -53 77 -57 13 -3 49 -19 80 -34
31 -16 63 -29 72 -29 9 0 30 -7 45 -15 16 -8 36 -15 44 -15 8 0 40 -10 70 -21
30 -12 75 -24 100 -26 25 -3 49 -8 53 -13 14 -13 -20 -73 -75 -132 -89 -94
-88 -94 -204 -58 -121 38 -230 89 -277 129 -19 17 -41 31 -49 31 -8 0 -32 -15
-54 -34 -46 -39 -145 -87 -229 -110 -33 -9 -77 -24 -99 -32 -21 -8 -46 -12
-57 -9 -29 10 -156 152 -162 182 -7 38 -2 43 44 43 21 0 39 4 39 9 0 4 33 16
73 26 39 9 81 22 92 29 11 7 40 16 64 20 24 4 56 16 72 26 15 11 42 23 60 27
20 4 50 25 83 59 28 29 59 53 68 54 9 0 41 -23 70 -50z m1943 8 c25 -11 34
-28 14 -28 -17 0 -49 20 -49 30 0 13 4 12 35 -2z m86 -58 c23 -19 23 -19 4
-20 -21 0 -45 17 -45 32 0 14 17 9 41 -12z m-5481 -9 c16 -31 12 -93 -11 -157
-12 -33 -23 -96 -26 -144 -5 -77 -3 -90 21 -136 14 -29 26 -57 26 -62 0 -19
133 -111 225 -157 96 -47 198 -76 276 -77 26 0 81 12 122 26 42 14 84 26 95
26 10 0 36 14 58 30 45 36 75 36 88 -1 7 -21 5 -33 -12 -56 -18 -26 -31 -30
-144 -51 -234 -44 -440 -43 -525 1 -18 10 -37 17 -42 17 -32 0 -221 159 -221
186 0 6 -6 17 -14 23 -20 17 -60 95 -80 159 -29 87 -70 91 -143 16 -44 -45
-99 -84 -119 -84 -20 0 -22 24 -8 98 16 82 44 125 122 184 71 54 276 178 294
178 4 0 12 -9 18 -19z m6949 -1 c31 -16 33 -40 6 -72 -16 -19 -25 -42 -25 -64
0 -45 -60 -199 -107 -271 -44 -69 -130 -163 -149 -163 -20 0 -17 53 4 81 48
63 123 194 131 227 44 186 68 251 95 262 28 11 25 11 45 0z m-1361 -51 c9 -11
49 -36 87 -55 39 -20 79 -44 90 -54 11 -10 37 -23 59 -29 21 -5 46 -16 55 -23
14 -12 100 -53 191 -91 35 -15 70 -48 70 -65 0 -19 -29 -52 -45 -52 -6 0 -29
16 -51 35 -21 20 -50 38 -64 42 -14 3 -36 17 -49 30 -13 12 -29 23 -35 23 -6
1 -54 30 -106 66 -52 36 -132 90 -178 120 -76 51 -93 74 -56 74 8 0 22 -9 32
-21z m1532 0 c0 -5 -11 -9 -25 -9 -26 0 -34 15 -12 23 16 5 37 -3 37 -14z m-5
-83 c31 -21 41 -66 21 -105 -9 -16 -16 -43 -16 -59 0 -15 -6 -37 -14 -47 -13
-18 -17 -19 -53 -6 -83 29 -85 31 -77 129 5 61 12 91 23 100 20 16 83 9 116
-12z m-3670 -217 c22 -22 58 -50 80 -61 22 -11 44 -27 48 -34 5 -8 24 -14 47
-14 106 0 97 -27 -69 -192 -88 -87 -146 -138 -159 -138 -20 0 -72 44 -199 168
-77 75 -103 110 -103 138 0 22 4 24 49 24 37 0 54 5 75 25 15 14 33 25 41 25
12 0 64 42 105 85 22 23 42 18 85 -26z m3516 -86 c6 -16 16 -54 22 -86 10 -56
10 -58 -18 -87 -16 -17 -32 -30 -37 -30 -4 0 -26 16 -48 36 -43 39 -53 81 -24
105 8 7 22 26 31 43 27 54 58 61 74 19z m-7166 -29 c46 -61 49 -113 8 -139
-16 -10 -43 -35 -61 -56 -27 -31 -121 -99 -137 -99 -2 0 -11 13 -20 30 -25 48
-19 96 20 153 42 63 128 157 143 157 6 0 27 -21 47 -46z m6983 -184 c1 -19 7
-52 14 -73 10 -32 9 -40 -3 -48 -21 -13 -27 -11 -45 16 -40 62 -35 149 9 143
17 -2 23 -10 25 -38z m-6826 -35 c29 -28 66 -60 81 -70 37 -24 57 -64 46 -92
-5 -13 -13 -23 -18 -23 -5 0 -17 -13 -28 -29 -10 -16 -46 -50 -81 -75 -73 -54
-111 -59 -154 -21 -33 29 -35 58 -8 103 22 35 26 67 10 77 -18 11 -11 50 15
85 14 19 25 44 25 56 0 67 38 63 112 -11z m947 -109 c18 -22 10 -150 -9 -153
-18 -3 -70 79 -70 109 0 45 54 75 79 44z m-665 -66 c22 -5 53 -11 69 -15 23
-5 27 -10 27 -39 0 -24 -7 -38 -22 -49 -13 -8 -57 -49 -99 -91 -66 -66 -81
-76 -112 -76 -65 0 -71 37 -17 99 19 21 30 45 30 63 0 43 47 131 67 124 9 -4
34 -11 57 -16z m370 -13 c25 -18 14 -64 -25 -108 -17 -19 -39 -51 -50 -71 -21
-41 -63 -68 -104 -68 -29 0 -32 17 -11 58 7 15 17 49 21 77 11 76 29 103 73
110 20 4 42 8 47 10 20 7 31 5 49 -8z m146 -11 c0 -14 -5 -28 -10 -31 -13 -8
-24 20 -16 40 9 24 26 17 26 -9z m-17 -122 c9 -10 -4 -34 -19 -34 -8 0 -14 6
-14 13 0 22 19 35 33 21z"/>
<path d="M3497 6788 c-8 -23 13 -60 61 -110 46 -48 80 -74 88 -66 5 6 -52 124
-77 159 -21 30 -64 40 -72 17z"/>
<path d="M5433 6792 c-13 -8 -53 -114 -53 -139 0 -22 13 -15 68 37 43 40 53
55 50 77 -2 21 -9 29 -28 31 -14 1 -31 -1 -37 -6z"/>
<path d="M4905 6661 c-53 -25 -153 -116 -161 -147 -9 -34 12 -54 55 -54 21 0
59 -7 85 -16 33 -11 66 -15 106 -11 72 6 88 15 63 31 -26 18 -105 46 -129 46
-24 0 -44 18 -44 41 0 9 20 38 45 64 25 25 43 51 40 56 -8 12 -14 11 -60 -10z"/>
<path d="M4060 6652 c0 -4 13 -23 30 -42 46 -55 39 -96 -18 -106 -48 -9 -114
-42 -107 -54 10 -16 93 -23 127 -10 18 7 62 15 98 19 60 6 65 8 68 32 4 33
-26 71 -101 125 -54 40 -97 56 -97 36z"/>
<path d="M5573 6263 c-7 -2 -13 -11 -13 -18 0 -7 -16 -24 -37 -37 -20 -12 -49
-31 -65 -41 -28 -19 -38 -47 -17 -47 19 0 178 110 189 131 9 17 7 19 -17 18
-15 0 -34 -3 -40 -6z"/>
<path d="M5348 6099 c-10 -5 -18 -14 -18 -19 0 -15 56 -12 69 3 20 25 -16 37
-51 16z"/>
<path d="M5260 6040 c-8 -5 -12 -12 -8 -15 9 -9 48 4 48 16 0 12 -21 11 -40
-1z"/>
<path d="M5171 5999 c-17 -7 -21 -13 -14 -20 16 -16 57 -7 61 14 4 19 -10 21
-47 6z"/>
<path d="M3610 6095 c0 -14 37 -35 61 -35 17 0 9 29 -10 40 -28 15 -51 12 -51
-5z"/>
<path d="M3714 6035 c11 -8 29 -15 39 -15 16 0 17 3 7 15 -7 8 -24 15 -39 15
-25 -1 -25 -1 -7 -15z"/>
<path d="M3790 5996 c0 -15 21 -26 51 -26 27 0 23 19 -7 30 -34 13 -44 13 -44
-4z"/>
<path d="M4314 5746 c-15 -12 -16 -17 -7 -27 17 -18 370 -19 392 -1 14 11 14
13 -3 27 -28 21 -353 22 -382 1z"/>
<path d="M4222 5618 c-7 -7 -12 -19 -12 -28 0 -38 16 -40 295 -40 259 0 273 1
290 20 17 19 17 21 0 40 -17 19 -31 20 -290 20 -197 0 -274 -3 -283 -12z"/>
<path d="M4228 5438 c-32 -11 -38 -42 -10 -53 20 -8 556 -7 577 1 27 11 17 41
-16 53 -41 14 -513 13 -551 -1z"/>
<path d="M4293 5314 c-3 -9 -2 -24 4 -33 9 -14 38 -16 194 -19 200 -3 224 0
233 24 15 40 -7 44 -221 44 -179 0 -204 -2 -210 -16z"/>
<path d="M6120 4910 c0 -12 28 -25 36 -17 3 3 -4 10 -15 17 -15 7 -21 7 -21 0z"/>
<path d="M6170 7219 c-15 -27 -6 -49 19 -49 24 0 37 35 21 55 -17 20 -27 19
-40 -6z"/>
<path d="M2798 7209 c-26 -15 -22 -48 8 -61 31 -14 57 -1 62 31 3 15 -4 24
-23 31 -31 12 -26 12 -47 -1z"/>
</g>
</svg>
