<?xml version="1.0" standalone="no"?>
<!DOCTYPE svg PUBLIC "-//W3C//DTD SVG 20010904//EN"
 "http://www.w3.org/TR/2001/REC-SVG-20010904/DTD/svg10.dtd">
<svg version="1.0" xmlns="http://www.w3.org/2000/svg"
 width="3954.000000pt" height="1067.000000pt" viewBox="0 0 3954.000000 1067.000000"
 preserveAspectRatio="xMidYMid meet">

<g transform="translate(0.000000,1067.000000) scale(0.100000,-0.100000)"
fill="#000000" stroke="none">
<path d="M5789 10654 c-7 -8 -31 -25 -53 -36 -23 -11 -48 -26 -56 -33 -21 -18
-183 -101 -255 -131 -209 -88 -356 -146 -404 -160 -31 -9 -74 -26 -96 -39 -22
-12 -63 -25 -91 -28 -28 -3 -71 -14 -95 -25 -44 -20 -73 -28 -224 -63 -44 -10
-98 -27 -120 -39 -21 -11 -47 -20 -58 -20 -21 0 -227 -68 -242 -81 -6 -4 -31
-11 -55 -15 -25 -3 -64 -17 -87 -29 -23 -13 -57 -26 -75 -30 -31 -7 -91 -36
-212 -103 -74 -41 -222 -194 -266 -275 -76 -141 -99 -185 -105 -207 -4 -14
-13 -32 -20 -40 -7 -8 -18 -33 -25 -55 -7 -22 -25 -62 -40 -90 -67 -121 -84
-151 -96 -165 -7 -8 -15 -28 -19 -45 -3 -16 -17 -52 -30 -80 -48 -101 -61
-159 -96 -440 -17 -138 12 -472 52 -583 20 -56 24 -99 11 -118 -4 -6 -21 -18
-38 -27 -18 -9 -44 -31 -59 -49 -27 -32 -75 -130 -75 -153 0 -24 47 -57 76
-53 25 3 34 14 64 73 29 59 39 70 60 70 23 0 25 -4 31 -60 3 -33 14 -74 24
-92 l20 -32 -24 -25 c-19 -20 -22 -32 -17 -56 5 -29 3 -33 -24 -43 -35 -13
-46 -41 -31 -80 14 -36 50 -48 130 -45 63 3 66 4 69 30 4 32 -23 52 -83 63
l-40 7 55 20 c99 34 114 38 158 38 l42 0 -16 25 c-9 14 -24 25 -34 25 -10 0
-38 8 -62 19 -35 15 -48 28 -71 72 -15 30 -27 66 -27 80 0 15 -13 51 -30 82
-32 61 -39 114 -15 123 9 4 43 -18 87 -54 74 -61 216 -152 237 -152 6 0 33
-11 59 -24 26 -13 62 -27 79 -31 18 -3 45 -19 61 -33 26 -24 30 -36 36 -109 5
-55 4 -89 -4 -103 -11 -21 -12 -21 -38 -4 -41 28 -95 54 -109 54 -8 0 -24 7
-37 15 -27 18 -94 25 -97 10 -1 -5 15 -15 36 -20 63 -18 66 -58 6 -67 -13 -1
-29 -10 -34 -19 -8 -13 -4 -22 19 -42 16 -14 26 -29 22 -33 -4 -4 -35 -1 -68
6 -40 8 -89 10 -146 6 -136 -11 -166 -32 -125 -86 31 -43 27 -67 -14 -87 -42
-20 -54 -53 -35 -97 7 -17 22 -57 33 -88 l20 -58 47 0 c54 0 68 -12 76 -62 6
-36 -17 -108 -35 -108 -19 0 -82 62 -100 99 -10 20 -33 63 -50 96 -45 89 -101
268 -112 365 -7 63 -15 90 -31 107 -45 48 -62 17 -52 -99 8 -102 86 -376 119
-418 6 -8 18 -31 26 -50 12 -32 29 -59 97 -153 36 -49 92 -108 151 -157 47
-39 128 -149 172 -232 19 -36 158 -267 179 -298 10 -14 27 -43 39 -65 37 -69
72 -128 110 -185 20 -30 44 -70 53 -90 10 -19 27 -46 38 -61 17 -20 19 -30 11
-50 -15 -38 -226 -249 -249 -249 -12 0 -37 21 -63 53 -24 28 -62 73 -86 99
-24 26 -43 56 -43 67 0 11 23 41 50 67 74 70 68 109 -28 202 -52 50 -87 45
-163 -23 -34 -30 -67 -55 -73 -55 -7 0 -24 12 -38 28 -22 24 -656 866 -701
931 -9 15 -30 42 -45 62 -59 79 -382 510 -449 599 -38 52 -91 115 -118 139
-46 43 -48 43 -108 39 -58 -4 -69 -9 -177 -83 -274 -187 -317 -230 -308 -307
4 -36 53 -127 78 -148 4 -3 28 -36 55 -75 27 -38 80 -113 118 -165 102 -138
175 -238 247 -340 22 -30 53 -73 70 -95 16 -22 52 -71 80 -110 27 -38 69 -97
93 -130 24 -33 63 -88 85 -121 23 -34 49 -67 57 -74 8 -7 15 -16 15 -21 0 -5
19 -35 43 -66 24 -32 84 -114 134 -183 51 -69 103 -139 117 -156 14 -18 26
-35 26 -38 0 -3 25 -39 55 -78 31 -40 58 -83 62 -96 6 -24 -1 -32 -107 -124
-38 -33 -38 -62 -1 -119 67 -100 97 -110 158 -56 63 55 95 77 113 77 10 0 43
-35 78 -82 67 -90 69 -111 10 -123 -18 -4 -49 -15 -68 -25 -19 -10 -73 -32
-119 -50 -90 -34 -170 -75 -239 -124 -40 -28 -49 -30 -210 -42 -162 -12 -230
-22 -286 -44 -15 -5 -57 -14 -94 -20 -64 -10 -130 -34 -237 -86 -28 -13 -55
-24 -60 -24 -22 0 -158 -99 -235 -170 -90 -83 -245 -262 -308 -356 -68 -102
-106 -173 -184 -344 -28 -62 -78 -299 -78 -371 0 -71 -6 -83 -77 -167 -29 -35
-53 -70 -53 -78 0 -8 -4 -14 -10 -14 -12 0 -26 -52 -44 -170 -21 -136 -44
-238 -66 -295 -10 -27 -22 -67 -25 -87 -3 -21 -12 -44 -20 -52 -21 -21 -21
-250 -1 -292 8 -16 18 -65 21 -109 4 -44 17 -114 30 -155 12 -41 32 -118 45
-170 12 -52 30 -119 41 -148 24 -67 24 -79 -2 -154 -26 -77 -36 -272 -20 -375
30 -193 143 -370 321 -501 41 -31 76 -60 78 -64 5 -11 609 -10 614 0 2 5 44
21 93 36 146 44 274 94 400 158 96 48 125 73 125 107 0 51 30 66 97 50 59 -15
171 3 233 39 101 57 283 226 332 309 11 18 28 35 39 38 20 7 69 -18 69 -34 0
-4 13 -25 30 -46 16 -21 35 -55 40 -76 6 -20 17 -50 25 -66 8 -15 15 -34 15
-42 0 -18 55 -113 77 -134 28 -25 125 -36 413 -47 146 -6 357 -15 470 -20 263
-12 950 -12 1190 0 102 6 304 14 450 20 309 11 388 20 429 50 28 19 82 118
142 257 29 67 166 233 193 233 11 0 69 -36 128 -80 59 -44 110 -80 114 -80 4
0 21 -10 38 -23 27 -19 128 -81 231 -139 17 -10 75 -40 129 -68 55 -28 104
-54 110 -59 6 -5 29 -14 51 -21 22 -7 49 -18 61 -25 11 -7 49 -22 85 -34 35
-11 102 -34 149 -52 121 -45 168 -52 315 -47 113 4 139 9 195 32 156 66 229
113 307 196 49 53 103 126 103 139 0 5 7 14 15 21 8 7 21 34 29 60 8 26 21 61
29 77 9 16 24 77 36 135 11 59 33 140 50 181 16 42 34 97 39 124 6 26 15 62
20 78 33 92 72 226 78 265 6 42 28 88 39 83 22 -12 25 15 25 227 0 220 -1 230
-19 230 -13 0 -23 11 -30 33 -20 63 -49 193 -61 277 -25 168 -51 226 -166 365
-31 38 -34 48 -35 106 -1 142 -15 222 -58 334 -23 61 -49 124 -58 140 -8 17
-25 48 -36 70 -12 22 -38 65 -59 96 -21 31 -38 60 -38 63 0 8 -74 108 -123
166 -51 60 -213 223 -263 265 -46 38 -149 105 -163 105 -3 0 -33 14 -66 30
-33 16 -64 30 -69 30 -5 0 -28 9 -51 20 -22 11 -63 23 -90 26 -28 3 -77 14
-110 24 -86 27 -162 38 -312 46 -129 7 -134 8 -185 41 -28 19 -65 40 -82 48
-17 8 -42 21 -56 29 -33 20 -165 76 -179 76 -6 0 -28 9 -48 20 -21 11 -45 20
-53 20 -22 0 -60 28 -60 44 0 28 119 166 144 166 8 0 41 -22 73 -48 75 -63 94
-73 115 -61 29 16 108 128 108 153 0 27 -4 32 -83 96 -38 30 -56 52 -57 68 0
19 58 106 175 262 15 19 51 69 80 110 30 41 66 91 80 110 44 59 134 183 157
218 13 18 37 51 53 72 17 21 64 87 105 145 73 103 103 144 155 215 41 56 186
254 235 322 25 34 62 85 82 113 20 27 46 64 58 80 11 17 45 63 74 102 29 40
61 94 71 119 36 94 -10 157 -206 288 -57 39 -106 72 -109 75 -20 23 -97 65
-127 70 -85 16 -127 -11 -219 -134 -65 -88 -139 -183 -178 -231 -14 -18 -26
-35 -26 -40 0 -4 -9 -18 -21 -30 -12 -13 -35 -43 -53 -67 -17 -25 -66 -90
-108 -146 -43 -56 -78 -105 -78 -109 0 -5 -13 -21 -30 -37 -16 -16 -30 -33
-30 -38 0 -5 -19 -32 -42 -60 -24 -29 -47 -59 -53 -68 -9 -15 -108 -146 -185
-244 -17 -22 -70 -94 -119 -160 -79 -108 -155 -210 -234 -313 -15 -21 -37 -52
-49 -70 -21 -33 -46 -52 -70 -52 -7 0 -40 25 -73 55 -76 69 -106 72 -166 18
-48 -43 -69 -81 -69 -122 0 -24 12 -42 55 -83 30 -28 55 -54 55 -57 -1 -4 -26
-33 -56 -66 -31 -33 -69 -79 -84 -101 -27 -38 -48 -54 -70 -54 -10 0 -229 219
-241 242 -14 25 -12 31 29 94 21 33 78 127 127 209 48 83 96 161 105 175 10
14 27 43 39 65 12 22 35 60 51 85 16 25 34 56 40 69 6 13 21 37 35 52 13 16
27 39 31 51 4 13 17 36 30 51 13 16 24 34 24 40 0 6 51 61 113 122 166 160
261 316 314 509 71 260 82 396 33 396 -33 0 -47 -32 -53 -120 -3 -47 -14 -109
-25 -140 -11 -30 -33 -97 -49 -148 -15 -52 -38 -105 -50 -118 -12 -13 -27 -42
-33 -64 -6 -22 -22 -52 -36 -67 -26 -28 -73 -63 -86 -63 -13 0 -29 78 -22 107
13 61 12 60 70 65 30 3 59 9 64 14 8 8 24 79 37 164 4 32 1 38 -34 60 -48 32
-52 51 -14 91 54 56 40 73 -61 74 -39 1 -73 6 -80 13 -9 9 4 12 63 12 72 0 76
1 106 33 36 38 43 56 31 80 -6 12 -21 17 -48 17 -47 0 -56 11 -30 35 24 22 25
38 4 71 -16 23 -15 29 16 109 44 114 55 116 99 24 11 -25 32 -52 46 -59 23
-12 28 -11 55 15 17 16 30 34 30 40 0 35 -66 133 -115 173 -35 28 -56 53 -60
72 -9 39 20 101 82 175 74 89 123 162 123 185 0 10 14 35 31 54 23 27 32 50
39 98 5 35 16 84 25 108 33 91 5 356 -48 459 -28 55 -67 173 -97 296 -20 80
-22 107 -17 270 6 198 22 280 93 456 38 97 40 109 19 109 -17 0 -69 -52 -144
-145 -31 -38 -67 -81 -79 -95 -13 -14 -35 -42 -49 -62 -17 -26 -33 -38 -49
-38 -28 0 -37 16 -54 95 -7 33 -21 92 -31 130 -41 160 -68 602 -46 758 l8 57
-74 0 c-56 0 -78 -4 -88 -16z m105 -40 c3 -9 -1 -44 -11 -77 -13 -49 -16 -106
-16 -272 0 -229 15 -349 58 -488 14 -43 25 -85 25 -94 0 -9 12 -40 26 -70 l25
-55 -21 -66 c-40 -125 -61 -554 -36 -747 16 -126 23 -155 36 -155 17 0 19 18
35 236 9 120 22 244 29 274 8 30 17 80 21 110 3 30 17 82 30 115 13 33 26 76
29 96 7 41 63 149 77 149 11 0 11 -2 9 -155 -1 -97 4 -138 23 -215 38 -148 51
-257 43 -362 -23 -323 -24 -332 -66 -478 -22 -80 -54 -172 -70 -205 -16 -33
-36 -77 -44 -97 -8 -21 -20 -38 -25 -38 -6 0 -11 -6 -11 -14 0 -8 -27 -51 -60
-95 -60 -79 -134 -149 -240 -227 -170 -126 -176 -127 -165 -29 12 118 -31 152
-179 143 -45 -3 -87 -4 -93 -1 -20 7 -15 31 17 78 17 24 30 46 30 50 0 3 14
34 31 68 55 112 64 356 14 406 -26 27 -43 -5 -54 -104 -5 -49 -19 -119 -30
-155 -12 -36 -21 -71 -21 -79 0 -26 -82 -146 -129 -189 -67 -62 -85 -69 -199
-75 -91 -5 -103 -3 -112 13 -7 12 -4 28 11 56 26 50 35 149 19 198 -17 52 -38
43 -65 -29 -62 -163 -69 -177 -107 -210 -38 -35 -39 -35 -132 -35 -86 0 -96 2
-132 28 -67 49 -140 127 -194 207 -18 28 -36 52 -40 55 -9 8 -56 102 -65 130
-4 14 -16 44 -26 66 -13 27 -23 82 -29 154 -14 151 -34 178 -72 93 -17 -38
-22 -68 -22 -143 0 -88 26 -262 43 -285 4 -5 15 -35 25 -65 11 -30 27 -63 38
-73 10 -10 18 -22 18 -27 0 -5 20 -32 46 -61 48 -54 51 -72 15 -77 -32 -5
-145 27 -206 57 -92 45 -176 149 -202 251 -8 30 -18 60 -23 65 -13 16 -28 132
-35 260 -3 66 -8 132 -11 148 -15 77 -76 -23 -94 -154 -13 -96 -9 -142 27
-289 26 -109 55 -176 105 -246 18 -25 28 -51 26 -65 -3 -22 -8 -24 -63 -25
-36 -1 -70 4 -85 13 -26 15 -119 135 -155 200 -11 21 -31 53 -43 72 -11 19
-24 60 -28 90 -3 31 -12 70 -19 87 -7 17 -18 64 -24 105 -7 41 -19 108 -26
149 -23 117 -45 531 -35 624 11 95 20 124 73 241 65 145 181 289 307 381 72
53 282 164 310 164 12 0 44 11 72 25 49 25 79 31 91 19 4 -4 -17 -29 -46 -56
-113 -106 -141 -135 -181 -188 -87 -115 -154 -270 -117 -270 11 0 66 54 98 96
97 129 203 243 278 299 22 17 46 36 54 43 29 28 181 122 261 163 47 23 92 48
100 54 8 7 44 21 80 33 36 11 97 32 135 46 39 14 110 31 159 37 48 6 125 22
170 36 44 14 102 31 127 38 44 12 248 108 336 158 24 14 75 49 114 78 123 92
133 99 145 99 7 0 15 -7 18 -16z m-2649 -1887 c2 -235 5 -284 23 -362 11 -49
23 -121 27 -160 5 -38 17 -95 27 -125 11 -30 24 -68 28 -85 21 -75 65 -175
106 -240 24 -40 44 -82 44 -94 0 -50 -70 -5 -242 157 -49 47 -64 55 -109 61
-50 6 -53 8 -67 46 -19 54 -29 461 -13 560 6 39 17 117 25 175 13 102 27 147
84 273 24 53 50 83 61 71 3 -2 5 -127 6 -277z m3178 -264 c5 -46 -8 -101 -50
-210 -16 -44 -40 -60 -29 -20 3 12 13 71 22 132 18 119 29 159 43 151 4 -3 11
-27 14 -53z m-97 -321 c-14 -14 -16 -14 -16 -1 0 20 23 44 29 28 2 -6 -4 -18
-13 -27z m-254 -459 c-1 -23 -16 -76 -32 -117 -17 -41 -30 -84 -30 -96 0 -35
-68 -96 -116 -103 -23 -4 -47 -14 -54 -22 -10 -12 -8 -16 15 -25 14 -5 37 -10
49 -10 13 0 31 -9 41 -20 11 -12 31 -20 52 -20 34 0 44 -13 17 -24 -9 -3 -28
-6 -44 -6 -37 0 -74 -44 -60 -70 13 -24 4 -30 -49 -30 -25 0 -64 -5 -86 -10
-51 -12 -67 2 -34 29 31 25 17 52 -34 65 -21 5 -37 17 -40 28 -7 25 -33 23
-94 -9 -69 -36 -81 -27 -64 53 6 32 11 72 11 90 0 39 41 78 94 88 19 4 55 18
78 31 24 14 48 25 55 25 20 0 177 98 219 136 85 79 111 83 106 17z m-1467 -16
c396 -1 750 3 786 7 62 7 69 6 89 -16 19 -20 21 -30 15 -77 -4 -30 -20 -97
-36 -149 -16 -52 -29 -107 -29 -122 0 -64 -12 -91 -55 -120 -43 -29 -118 -44
-415 -80 -52 -6 -156 -23 -231 -37 l-135 -27 -110 23 c-60 12 -156 27 -214 33
-160 15 -401 57 -437 76 -45 23 -67 72 -106 242 -56 240 -56 233 -13 250 11 5
55 7 96 3 41 -3 399 -6 795 -6z m-2761 -511 c18 -8 46 -30 62 -51 16 -20 39
-48 52 -61 12 -14 22 -29 22 -34 0 -5 23 -36 50 -69 28 -33 50 -64 50 -69 0
-4 14 -21 30 -37 17 -16 30 -33 30 -37 0 -10 86 -120 124 -159 14 -15 26 -31
26 -37 0 -6 25 -41 55 -77 30 -37 55 -71 55 -76 0 -4 14 -21 30 -37 17 -17 30
-38 30 -46 0 -9 4 -16 9 -16 4 0 29 -30 54 -67 25 -38 55 -76 66 -85 12 -10
21 -26 21 -37 0 -10 11 -26 25 -35 14 -9 37 -36 52 -59 15 -23 40 -57 55 -75
15 -18 28 -38 28 -45 0 -7 14 -25 30 -40 17 -16 30 -33 30 -39 0 -10 38 -55
73 -86 9 -9 17 -22 17 -29 0 -7 11 -25 25 -40 34 -38 75 -101 75 -116 0 -6
-11 1 -25 16 -14 15 -29 27 -34 27 -4 0 -13 12 -20 27 -7 15 -23 40 -37 57
-78 98 -116 149 -124 171 -5 14 -14 25 -19 25 -6 0 -26 24 -44 53 -19 28 -44
62 -56 75 -12 12 -29 38 -37 57 -7 19 -23 39 -34 45 -11 6 -29 27 -39 48 -11
20 -35 53 -55 71 -20 19 -36 41 -36 48 0 7 -13 25 -30 40 -16 14 -30 30 -30
35 0 5 -22 36 -50 69 -27 33 -50 64 -50 68 0 4 -15 24 -32 43 -18 20 -44 51
-58 68 -14 18 -35 44 -47 58 -13 14 -23 29 -23 35 0 5 -12 24 -27 43 -16 18
-50 62 -78 98 -27 37 -65 85 -82 107 -18 23 -33 45 -33 50 0 16 -59 39 -103
39 -36 0 -55 -8 -116 -52 -40 -29 -101 -72 -134 -96 -92 -65 -117 -91 -124
-134 -3 -21 -9 -41 -13 -43 -31 -19 -66 52 -55 111 7 40 60 97 134 147 284
188 268 181 335 153z m5651 -32 c28 -19 97 -66 155 -106 127 -86 170 -134 170
-190 0 -28 -7 -46 -24 -63 -14 -13 -27 -33 -31 -45 -3 -11 -13 -27 -22 -36
-23 -23 -59 -74 -83 -116 -11 -21 -25 -38 -30 -38 -5 0 -17 -15 -26 -32 -9
-18 -36 -56 -60 -85 -24 -28 -44 -54 -44 -58 0 -4 -13 -23 -30 -42 -16 -18
-30 -39 -30 -44 0 -6 -12 -25 -26 -43 -40 -49 -118 -159 -133 -189 -8 -15 -18
-27 -21 -27 -4 0 -28 -31 -53 -68 -25 -38 -53 -75 -62 -82 -8 -7 -15 -18 -15
-26 0 -7 -14 -28 -30 -46 -17 -18 -33 -41 -36 -50 -3 -10 -9 -18 -14 -18 -4 0
-19 -16 -32 -37 -12 -20 -32 -50 -43 -67 -11 -18 -28 -41 -38 -51 -10 -11 -37
-45 -60 -75 -23 -30 -47 -61 -54 -68 -7 -7 -13 -18 -13 -24 0 -6 -11 -24 -25
-42 -14 -17 -48 -59 -76 -93 -30 -39 -57 -63 -69 -63 -37 0 -21 33 67 138 29
35 53 69 53 75 0 7 11 21 25 31 14 10 25 25 25 32 0 7 23 39 50 72 28 33 50
63 50 67 0 4 12 22 28 39 15 18 52 68 82 110 52 73 72 101 135 186 14 19 60
82 102 140 42 58 90 124 107 147 17 23 42 59 56 79 14 20 37 50 52 66 15 16
34 44 43 61 8 18 33 54 55 81 22 26 40 52 40 57 0 5 8 17 18 27 91 95 124 184
85 229 -19 20 -97 79 -230 173 -72 51 -83 55 -146 60 l-68 5 31 42 c47 63 110
65 195 7z m-3689 -63 c100 -22 199 -53 254 -80 40 -20 198 -106 220 -121 8 -5
71 -37 140 -72 154 -77 183 -79 285 -27 39 20 81 40 95 44 14 4 52 24 85 44
33 19 82 46 110 59 27 13 52 26 55 30 17 24 224 102 310 118 47 8 97 20 111
25 45 17 120 -15 148 -64 13 -21 36 -46 52 -55 40 -23 38 -57 -8 -123 -145
-214 -263 -317 -473 -416 -103 -49 -279 -113 -309 -113 -23 0 -89 51 -191 148
-48 46 -83 72 -98 72 -18 0 -116 -80 -172 -140 -37 -39 -95 -80 -115 -80 -30
0 -196 57 -288 99 -113 52 -228 127 -305 197 -105 96 -232 271 -232 319 0 9
16 23 35 31 30 12 35 19 35 47 0 30 5 35 58 59 61 29 61 29 198 -1z m-1933
-388 c18 -9 66 -24 107 -35 81 -20 110 -42 110 -87 0 -14 9 -73 20 -131 23
-122 20 -144 -18 -137 -58 12 -159 39 -192 52 -19 7 -56 19 -83 25 -37 10 -49
18 -54 38 -9 39 5 262 18 278 15 19 53 18 92 -3z m5517 -2 c14 -27 31 -198 23
-243 -3 -21 -11 -42 -18 -48 -26 -22 -299 -102 -320 -94 -13 5 -14 24 -9 123
7 157 11 177 39 199 13 11 52 25 85 31 33 7 80 21 103 31 55 24 84 25 97 1z
m-5810 -131 c0 -5 -2 -10 -4 -10 -3 0 -8 5 -11 10 -3 6 -1 10 4 10 6 0 11 -4
11 -10z m4217 -26 c4 -10 -4 -24 -22 -38 -32 -25 -29 -56 4 -56 49 0 46 -70
-7 -138 -15 -20 -75 -125 -132 -232 -57 -107 -121 -220 -143 -250 -50 -70
-374 -390 -394 -390 -11 0 -13 4 -5 13 5 6 13 33 16 59 4 26 25 87 47 134 22
47 46 109 54 138 7 28 25 73 39 100 30 57 27 68 -40 122 -42 35 -45 40 -39 74
l6 37 -46 5 c-88 10 -86 51 3 78 28 8 54 18 58 23 4 4 15 7 24 7 9 0 36 13 61
28 24 16 58 32 74 36 17 4 39 16 50 25 11 10 32 25 46 32 79 42 112 62 129 79
11 11 27 20 35 20 8 0 27 11 42 25 49 45 105 85 120 85 7 0 16 -7 20 -16z
m-2297 -41 c67 -55 100 -77 190 -129 36 -20 72 -43 80 -50 9 -7 36 -20 60 -29
24 -9 51 -22 60 -30 9 -8 58 -30 110 -48 103 -38 128 -59 96 -83 -11 -8 -36
-14 -56 -14 -47 0 -53 -7 -33 -37 16 -23 15 -25 -37 -75 -50 -50 -52 -53 -46
-95 3 -24 16 -64 30 -91 13 -26 29 -66 35 -89 6 -23 29 -81 51 -129 40 -85 50
-137 30 -149 -9 -6 -61 42 -111 101 -9 10 -47 46 -84 79 -143 127 -202 209
-360 510 -32 61 -80 143 -107 183 -56 82 -60 115 -15 120 20 3 41 -8 85 -45
80 -68 134 -103 161 -103 28 0 23 20 -8 36 -12 6 -32 20 -44 31 -12 12 -31 23
-42 27 -11 3 -25 16 -30 28 -6 13 -22 25 -36 28 -26 5 -89 68 -89 89 0 26 54
9 110 -36z m1120 -233 c10 -5 35 -27 57 -47 21 -21 50 -48 66 -60 52 -40 141
-118 166 -145 14 -16 30 -28 36 -28 6 0 22 -12 36 -27 14 -16 51 -47 82 -70
37 -28 57 -50 57 -63 0 -23 -45 -157 -59 -174 -4 -6 -14 -29 -21 -51 -7 -22
-20 -56 -30 -75 -10 -19 -37 -84 -61 -145 -24 -60 -53 -121 -66 -135 l-23 -25
-249 -3 c-197 -2 -256 0 -283 11 -31 13 -39 27 -116 208 -45 107 -88 213 -96
236 -8 23 -22 53 -32 68 -25 39 -24 104 3 122 12 8 31 22 41 31 11 10 79 66
151 126 72 60 131 113 131 118 0 4 6 8 13 8 7 0 33 21 57 46 43 45 96 84 113
84 5 0 17 -4 27 -10z m-2243 -106 c76 -26 144 -51 151 -57 9 -7 12 -53 10
-186 l-3 -176 -29 -3 c-17 -2 -53 8 -90 26 -33 16 -91 44 -128 61 -37 18 -73
41 -79 53 -13 24 -25 263 -15 302 4 17 13 26 25 26 11 0 82 -21 158 -46z
m4593 27 c16 -31 13 -267 -5 -300 -11 -22 -45 -43 -137 -89 -135 -66 -173 -78
-193 -62 -18 15 -21 339 -3 362 7 9 38 23 68 32 30 8 93 28 140 45 102 35 116
37 130 12z m-5005 -161 c3 -5 1 -10 -4 -10 -6 0 -11 5 -11 10 0 6 2 10 4 10 3
0 8 -4 11 -10z m55 -81 c0 -5 -4 -9 -10 -9 -5 0 -10 7 -10 16 0 8 5 12 10 9 6
-3 10 -10 10 -16z m46 -67 c-9 -8 -26 10 -26 26 1 15 2 15 15 -2 8 -11 13 -21
11 -24z m54 -68 c0 -8 -4 -12 -10 -9 -5 3 -10 13 -10 21 0 8 5 12 10 9 6 -3
10 -13 10 -21z m59 -80 c3 -16 1 -17 -13 -5 -19 16 -21 34 -3 29 6 -3 14 -13
16 -24z m45 -50 c4 -9 4 -19 2 -21 -8 -8 -26 8 -26 23 0 19 16 18 24 -2z m54
-79 l2 -30 -20 24 c-25 29 -26 44 -2 39 11 -2 18 -14 20 -33z m1095 -26 c28
-13 49 -51 41 -73 -3 -8 -41 -44 -85 -81 -44 -37 -122 -109 -174 -159 -51 -50
-120 -115 -152 -143 -32 -29 -53 -53 -47 -53 6 0 23 11 38 25 15 14 38 28 52
31 13 3 30 14 37 24 6 9 23 23 37 30 14 7 39 24 55 37 56 46 149 101 162 96 7
-3 13 -13 13 -23 0 -25 -14 -38 -160 -149 -47 -35 -89 -70 -95 -76 -5 -7 -28
-25 -50 -41 -22 -16 -72 -55 -112 -86 -39 -32 -79 -58 -89 -58 -10 0 -28 12
-39 26 -28 35 -47 28 -125 -46 -80 -74 -94 -78 -137 -35 -51 51 -46 81 25 141
104 90 303 248 362 289 56 39 127 96 319 258 50 42 94 77 96 77 2 0 15 -5 28
-11z m2528 -39 c30 -27 57 -50 62 -50 4 0 20 -12 36 -27 16 -16 46 -41 67 -58
21 -16 42 -34 48 -40 24 -22 104 -83 151 -115 27 -19 59 -42 70 -51 46 -39
204 -167 250 -204 103 -81 111 -98 72 -156 -37 -56 -64 -51 -154 25 -42 36
-85 66 -95 66 -10 0 -24 -11 -30 -25 -16 -36 -37 -31 -109 22 -63 45 -83 61
-170 134 -24 21 -67 54 -95 75 -161 123 -164 126 -164 150 0 33 33 31 79 -5
20 -15 47 -34 61 -41 26 -13 49 -31 121 -87 23 -18 45 -33 51 -33 5 0 21 -9
35 -20 46 -36 37 -13 -12 32 -25 24 -86 81 -135 128 -49 47 -111 103 -137 125
-81 68 -143 127 -143 137 0 15 57 68 73 68 8 0 39 -22 68 -50z m-3563 -19 c3
-8 -1 -12 -9 -9 -7 2 -15 10 -17 17 -3 8 1 12 9 9 7 -2 15 -10 17 -17z m48
-53 c3 -11 3 -23 -1 -26 -8 -8 -35 26 -35 45 0 19 28 4 36 -19z m52 -77 c3
-16 -1 -22 -10 -19 -7 3 -15 15 -16 27 -3 16 1 22 10 19 7 -3 15 -15 16 -27z
m62 -93 c0 -15 -19 -8 -29 11 -14 25 0 37 16 15 7 -10 13 -21 13 -26z m1459
16 c27 -34 26 -55 -2 -118 -13 -28 -34 -86 -46 -128 l-22 -76 80 -239 c44
-131 102 -303 130 -382 28 -79 51 -152 51 -162 0 -23 -42 -52 -63 -43 -16 6
-65 123 -87 206 -7 24 -20 57 -30 73 -10 17 -23 54 -29 84 -6 30 -15 59 -20
65 -5 6 -29 72 -54 147 -24 74 -52 149 -61 167 -26 50 -20 116 24 246 22 65
40 124 40 130 0 21 31 56 50 56 10 0 28 -12 39 -26z m1333 14 c9 -7 28 -58 43
-112 14 -55 35 -127 46 -160 11 -33 18 -72 15 -86 -3 -14 -28 -90 -56 -170
-29 -80 -62 -176 -75 -215 -49 -145 -117 -331 -135 -370 -10 -22 -21 -57 -25
-77 -6 -40 -35 -68 -70 -68 -44 0 -59 48 -30 98 13 24 37 89 136 372 17 47 35
96 41 110 5 14 21 57 34 95 12 39 34 104 48 145 15 41 26 89 26 106 0 38 -34
154 -61 206 -31 60 -22 116 21 131 23 8 25 8 42 -5z m-1882 -176 c0 -11 -11
-24 -25 -30 -14 -6 -25 -16 -25 -21 0 -13 -72 -81 -87 -81 -6 0 -20 -11 -30
-24 -10 -14 -49 -50 -88 -82 -38 -31 -100 -83 -137 -116 -53 -47 -73 -59 -95
-56 -25 3 -28 7 -28 38 0 33 6 40 145 142 80 59 165 122 189 140 143 108 181
127 181 90z m2446 -15 c28 -17 73 -49 100 -70 44 -34 175 -133 291 -221 45
-33 61 -69 42 -92 -19 -23 -54 -16 -92 20 -20 19 -108 94 -194 168 -170 143
-233 202 -233 218 0 19 35 10 86 -23z m-307 -118 c23 -38 41 -72 41 -77 0 -5
9 -17 20 -27 10 -9 25 -34 31 -54 7 -20 20 -42 29 -48 10 -7 20 -23 24 -36 3
-13 21 -41 41 -61 37 -39 48 -83 19 -72 -9 3 -20 6 -25 6 -5 0 -18 20 -29 45
-11 25 -24 45 -29 45 -6 0 -15 18 -21 39 -6 24 -18 42 -29 46 -11 3 -24 19
-29 34 -6 16 -30 55 -55 87 -37 50 -77 131 -77 157 0 3 11 2 24 -4 13 -6 43
-42 65 -80z m247 19 c11 -10 24 -18 27 -18 4 0 38 -30 75 -66 37 -36 86 -79
110 -95 23 -17 42 -34 42 -38 0 -5 14 -14 30 -21 18 -8 30 -20 30 -31 0 -27
-32 -24 -60 6 -13 14 -29 25 -37 25 -7 0 -27 12 -44 28 -17 15 -54 47 -82 72
-73 64 -167 160 -167 171 0 11 49 -10 76 -33z m-2336 18 c0 -7 -11 -21 -24
-30 -14 -8 -27 -24 -30 -34 -3 -10 -18 -25 -33 -35 -16 -9 -49 -36 -75 -59
-26 -24 -63 -54 -83 -68 -20 -14 -52 -37 -72 -52 -20 -16 -42 -28 -49 -28 -25
0 -15 31 16 48 17 9 33 25 36 34 3 9 13 19 22 22 10 3 41 28 70 56 29 27 57
50 63 50 5 0 13 9 17 20 7 20 107 89 130 90 6 0 12 -6 12 -14z m240 -11 c0
-43 -25 -87 -84 -148 -31 -32 -56 -65 -56 -73 0 -8 -9 -23 -19 -33 -10 -10
-22 -33 -26 -49 -3 -17 -13 -36 -21 -42 -7 -7 -19 -30 -24 -51 -13 -46 -44
-54 -61 -15 -16 34 -4 76 21 76 12 0 26 13 36 33 9 17 21 35 26 38 14 9 48 68
101 175 41 81 67 110 100 113 4 1 7 -10 7 -24z m1010 -90 c26 -31 -13 -322
-50 -370 -21 -28 -60 -261 -60 -364 0 -79 -21 -101 -114 -116 -21 -4 -52 -16
-67 -28 -24 -17 -34 -19 -56 -11 -47 16 -41 55 24 152 12 18 25 47 28 64 4 17
17 51 30 77 13 25 34 87 48 136 14 50 34 122 45 160 12 39 28 104 38 145 28
128 94 204 134 155z m-1020 -125 c0 -21 -25 -61 -47 -75 -14 -9 -23 -25 -23
-40 0 -14 -11 -35 -25 -47 -14 -12 -25 -27 -25 -33 0 -6 -18 -39 -40 -73 -48
-73 -70 -75 -70 -6 0 28 4 44 12 44 19 0 98 89 98 110 0 10 14 28 30 40 18 13
30 30 30 44 0 12 5 27 12 34 14 14 48 16 48 2z m1788 -105 c7 -17 19 -41 27
-55 75 -132 98 -170 111 -181 40 -33 58 -114 29 -126 -17 -6 -55 23 -55 41 0
6 -17 34 -37 62 -21 28 -54 72 -73 98 -19 27 -45 62 -57 79 -27 36 -29 73 -6
99 23 25 45 19 61 -17z m-1708 6 c18 -34 10 -65 -28 -115 -20 -27 -48 -66 -62
-86 -100 -152 -124 -181 -144 -178 -29 4 -34 53 -8 87 10 14 27 42 37 61 10
18 23 40 31 47 7 7 31 47 54 87 36 65 79 115 102 116 4 0 12 -9 18 -19z m-512
-37 c28 -19 30 -69 4 -83 -10 -5 -56 -23 -103 -39 -47 -16 -103 -39 -126 -51
-23 -11 -47 -21 -53 -21 -13 0 -138 -52 -190 -79 -19 -10 -46 -22 -60 -26 -14
-3 -45 -16 -70 -27 -25 -12 -52 -24 -60 -28 -8 -4 -25 -13 -37 -21 -19 -11
-27 -11 -58 4 -32 15 -36 21 -33 49 3 28 12 37 68 70 36 20 74 37 86 37 12 1
38 12 58 26 20 14 39 25 42 25 6 0 110 43 194 81 25 11 72 26 105 33 33 8 89
25 125 39 80 30 81 31 108 11z m2788 -15 c32 -11 88 -27 123 -35 35 -8 75 -21
90 -29 14 -8 44 -21 66 -29 61 -22 147 -60 175 -78 14 -9 41 -21 62 -27 55
-18 145 -69 152 -88 8 -20 -14 -54 -47 -72 -23 -12 -31 -11 -69 6 -24 11 -53
23 -65 27 -11 4 -27 13 -33 21 -7 8 -19 15 -27 15 -16 0 -136 49 -193 79 -19
11 -51 22 -70 26 -19 4 -53 18 -75 30 -22 12 -74 33 -115 45 -106 32 -128 57
-100 111 14 25 51 25 126 -2z m-418 -25 l2 -29 -20 24 c-11 12 -17 27 -14 33
11 17 29 2 32 -28z m58 -52 c28 -18 47 -92 24 -92 -6 0 -22 11 -35 25 -39 38
-30 94 11 67z m-263 -75 c9 -20 26 -46 37 -57 11 -11 20 -24 20 -30 0 -5 25
-39 56 -76 78 -91 94 -159 37 -152 -19 2 -33 17 -57 59 -50 90 -88 148 -127
193 -52 58 -57 109 -12 104 21 -2 32 -12 46 -41z m-1595 7 c3 -19 -26 -73 -59
-112 -11 -14 -75 -111 -122 -187 -18 -27 -36 -45 -47 -45 -20 0 -40 27 -40 55
0 20 172 260 209 293 31 26 55 25 59 -4z m-509 -45 c22 -24 61 -126 61 -161 0
-32 -43 -53 -225 -112 -175 -57 -302 -100 -385 -131 -52 -19 -103 -35 -112
-35 -20 0 -78 94 -78 127 0 15 15 33 45 55 71 53 128 86 160 94 17 4 41 15 55
24 14 9 52 26 85 37 33 12 85 31 115 43 52 21 74 29 180 63 63 20 77 20 99 -4z
m2640 5 c31 -9 92 -30 136 -46 44 -16 105 -38 135 -50 30 -11 78 -30 105 -43
28 -12 68 -30 89 -40 77 -32 176 -103 176 -125 0 -30 -56 -136 -75 -144 -9 -3
-29 1 -43 9 -30 16 -121 48 -287 101 -60 19 -126 41 -145 49 -19 8 -61 21 -92
30 -92 25 -148 52 -148 72 0 38 64 203 78 203 9 0 40 -7 71 -16z m-2062 -144
c-2 -19 -28 -73 -57 -120 -29 -47 -61 -104 -71 -127 -27 -64 -85 -83 -115 -37
-12 18 -10 26 20 75 19 30 46 74 61 99 14 25 29 52 35 60 5 8 16 31 25 50 8
20 27 43 43 52 25 16 28 16 45 0 14 -12 18 -26 14 -52z m1498 -32 c27 -53 64
-116 81 -140 49 -69 56 -85 44 -108 -14 -27 -52 -25 -77 3 -11 12 -42 60 -68
107 -27 47 -59 101 -71 120 -39 57 -30 123 15 118 21 -2 34 -19 76 -100z
m-2992 -31 c9 -20 21 -37 27 -37 5 0 16 -21 24 -47 8 -27 21 -62 30 -79 9 -17
20 -62 25 -100 6 -38 14 -85 20 -104 21 -68 11 -226 -24 -360 -8 -30 -22 -91
-31 -135 -18 -81 -64 -190 -99 -235 -81 -103 -252 -225 -332 -237 -21 -3 -50
-12 -65 -19 -15 -8 -36 -14 -46 -14 -11 0 -25 -6 -31 -14 -7 -8 -44 -20 -84
-26 -40 -6 -83 -19 -97 -29 -14 -10 -61 -23 -105 -30 -44 -7 -107 -19 -140
-27 -33 -8 -152 -23 -265 -34 -113 -11 -241 -26 -285 -34 -87 -15 -94 -14 -93
12 1 9 -8 52 -20 94 -28 101 -36 176 -23 211 11 28 38 37 46 15 2 -7 11 -40
20 -73 13 -44 28 -70 60 -102 l42 -43 141 0 c91 0 180 7 254 19 62 10 142 22
178 26 44 4 81 16 116 36 28 15 79 36 113 45 35 8 85 29 112 45 28 16 56 29
63 29 8 0 33 16 56 35 23 19 46 35 51 35 21 0 240 232 273 288 6 11 28 44 49
74 20 31 37 61 37 68 0 7 13 36 29 64 39 70 52 180 42 356 -9 142 -14 165 -36
174 -8 3 -21 30 -30 61 -9 30 -20 55 -25 55 -14 0 -42 59 -34 71 12 20 39 3
57 -34z m4437 31 c0 -17 -52 -120 -71 -141 -10 -10 -20 -35 -24 -55 -4 -20
-14 -50 -22 -66 -10 -20 -17 -70 -20 -152 -5 -113 -3 -130 22 -206 21 -68 52
-141 94 -224 37 -73 293 -364 320 -364 5 0 25 -13 45 -29 21 -17 53 -35 73
-42 20 -6 50 -21 68 -33 18 -12 63 -31 101 -41 38 -10 92 -31 120 -47 34 -19
71 -30 115 -34 35 -3 112 -15 171 -26 85 -15 140 -19 259 -16 l151 3 32 37
c18 20 41 67 54 107 18 55 27 71 42 71 27 0 34 -17 33 -75 -2 -66 -41 -218
-59 -228 -8 -4 -14 -15 -14 -22 0 -18 -57 -20 -110 -5 -19 6 -109 17 -200 26
-283 27 -506 65 -555 94 -17 11 -58 23 -92 29 -35 5 -79 17 -100 26 -21 9 -53
23 -71 31 -18 8 -43 14 -55 14 -28 0 -118 42 -182 85 -90 60 -192 182 -225
270 -18 46 -66 251 -80 337 -8 49 -11 132 -8 225 4 123 8 156 26 197 12 27 22
53 22 59 0 22 74 162 98 183 27 26 42 30 42 12z m-4591 -43 c100 -110 180
-275 151 -310 -17 -21 -30 -19 -89 10 -62 32 -166 45 -352 45 -96 0 -149 -4
-179 -15 -65 -23 -80 -20 -80 14 0 25 9 36 58 67 31 21 65 45 76 53 10 9 34
21 55 26 21 6 40 19 46 32 5 13 22 24 42 28 33 6 127 44 173 70 40 23 64 18
99 -20z m4789 21 c58 -31 139 -64 169 -71 17 -3 39 -17 47 -31 9 -13 23 -24
31 -24 23 0 57 -18 105 -55 25 -19 57 -40 72 -46 29 -12 42 -36 32 -63 -8 -20
-27 -20 -90 -1 -103 31 -473 14 -526 -25 -15 -11 -41 -23 -58 -26 -54 -11 -80
35 -40 71 10 9 24 34 31 54 15 48 93 164 136 201 38 34 53 36 91 16z m-5104
-36 c14 -14 -3 -29 -39 -36 -18 -3 -42 -15 -52 -26 -9 -11 -41 -30 -69 -44
-28 -13 -69 -42 -90 -64 -23 -23 -54 -42 -73 -46 l-33 -7 7 34 c17 78 75 141
147 159 24 6 59 17 78 25 61 25 101 26 124 5z m5461 -10 c28 -10 61 -21 75
-25 51 -11 130 -107 130 -157 0 -42 -23 -35 -105 31 -41 33 -87 62 -104 66
-16 3 -36 17 -45 29 -9 14 -29 26 -50 30 -42 8 -53 21 -35 42 15 18 57 13 134
-16z m-2115 -67 c48 -82 33 -117 -45 -104 -39 7 -40 8 -39 46 0 43 28 95 49
95 7 0 23 -16 35 -37z m-1321 13 c22 -27 25 -85 6 -106 -22 -24 -93 -28 -101
-5 -13 34 38 125 70 125 8 0 19 -6 25 -14z m-489 -38 c21 -35 27 -93 10 -103
-5 -3 -44 -15 -87 -26 -43 -11 -102 -29 -131 -40 -29 -10 -70 -23 -90 -29 -35
-8 -121 -38 -281 -95 -41 -15 -85 -34 -98 -42 -36 -24 -68 -10 -93 42 -38 78
-13 108 110 135 30 7 87 25 125 40 39 15 93 32 120 38 28 6 93 27 145 46 52
20 104 36 115 36 11 1 34 7 50 15 53 24 83 19 105 -17z m2375 12 c28 -7 77
-23 110 -36 33 -12 96 -32 140 -45 44 -12 112 -34 150 -49 39 -15 104 -35 145
-45 84 -18 110 -36 110 -74 0 -26 -33 -90 -54 -103 -18 -13 -53 -9 -66 7 -6 8
-37 21 -68 30 -32 8 -68 22 -82 29 -14 7 -72 28 -130 46 -58 18 -143 45 -190
60 -47 15 -111 33 -142 39 -71 15 -84 29 -68 75 6 19 21 47 32 61 22 28 21 28
113 5z m-1621 -82 c185 -209 207 -242 221 -328 13 -82 35 -90 66 -25 22 47 28
51 109 58 38 3 83 18 132 44 4 2 19 -7 33 -21 29 -29 33 -71 10 -103 -22 -32
-113 -69 -186 -77 -57 -6 -68 -5 -91 13 -53 42 -61 28 -92 -145 -24 -137 -84
-322 -153 -464 -28 -60 -30 -63 -69 -130 -14 -25 -35 -63 -48 -85 -26 -46 -65
-58 -97 -29 -27 24 -24 70 9 113 31 42 39 56 120 214 34 65 66 135 73 155 7
20 18 46 24 57 24 38 74 210 84 285 5 44 6 96 1 127 -16 95 -87 202 -183 276
-27 20 -37 35 -37 56 0 52 32 56 74 9z m3618 -61 c70 -56 210 -190 239 -231
31 -42 38 -96 15 -115 -7 -6 -16 -30 -19 -52 -6 -45 -19 -65 -36 -54 -6 3 -29
30 -50 58 -21 29 -77 94 -124 146 -78 86 -85 97 -91 145 -4 29 -16 65 -26 81
-53 80 3 93 92 22z m-6395 27 c3 -8 -7 -54 -23 -102 -26 -79 -38 -97 -123
-197 -52 -60 -105 -127 -118 -148 -20 -31 -29 -38 -51 -35 -24 3 -29 10 -44
63 -32 115 -24 131 127 276 152 144 216 184 232 143z m3291 -30 c39 -41 40
-53 7 -92 -29 -35 -95 -60 -177 -69 -52 -5 -58 -4 -81 21 -14 15 -33 43 -42
63 -20 43 -14 51 60 79 133 50 183 50 233 -2z m-2388 -138 c56 -26 63 -46 49
-130 -12 -73 -82 -233 -143 -328 -28 -43 -34 -47 -66 -45 -27 1 -38 8 -47 28
-26 53 -186 151 -323 196 -44 15 -87 18 -220 18 -158 -1 -167 -2 -215 -27 -27
-14 -62 -28 -77 -32 -48 -11 -36 32 33 115 121 146 134 157 203 164 33 3 89
13 123 21 149 35 237 43 443 40 165 -2 213 -6 240 -20z m5120 -9 c58 -13 132
-28 165 -32 82 -10 91 -15 150 -91 17 -21 51 -62 78 -91 44 -50 63 -103 37
-103 -6 0 -52 16 -103 36 l-92 36 -150 -5 c-127 -4 -161 -9 -217 -30 -37 -13
-73 -29 -80 -35 -7 -5 -30 -17 -52 -26 -52 -22 -152 -96 -165 -123 -17 -37
-45 -46 -74 -23 -43 34 -131 196 -157 290 -10 36 -23 79 -30 96 -27 64 14 109
114 125 28 4 146 6 261 4 180 -3 225 -7 315 -28z m-3280 -145 c97 -94 99 -106
39 -230 -22 -46 -47 -103 -55 -126 -8 -22 -21 -50 -28 -61 -7 -11 -19 -38 -26
-60 -7 -22 -18 -51 -26 -65 -7 -14 -29 -63 -49 -110 -54 -127 -67 -150 -84
-150 -28 1 -58 34 -95 105 -58 115 -58 116 6 295 54 150 100 264 119 298 10
18 19 38 19 44 0 6 14 40 31 75 22 45 36 63 50 63 10 0 55 -35 99 -78z m-262
46 c18 -18 14 -62 -9 -92 -29 -37 -66 -134 -74 -198 -4 -29 -18 -75 -32 -101
-13 -26 -28 -71 -33 -100 -7 -34 -29 -81 -65 -138 -30 -48 -66 -111 -80 -140
-26 -58 -47 -85 -83 -110 -12 -9 -39 -32 -60 -50 -35 -33 -155 -136 -218 -188
-16 -14 -63 -54 -104 -90 -41 -36 -79 -69 -85 -73 -5 -4 -26 -20 -45 -36 -19
-16 -53 -39 -75 -52 -22 -14 -70 -52 -106 -87 -51 -47 -72 -60 -88 -56 -22 6
-196 207 -232 268 -25 43 -22 59 32 172 21 46 39 85 39 89 0 3 20 48 45 101
25 52 45 97 45 100 0 3 18 44 41 91 22 48 52 112 65 142 14 30 55 116 92 190
67 135 67 135 122 162 90 44 181 79 245 95 33 8 87 23 120 33 68 21 203 44
380 64 158 18 149 18 163 4z m1482 -8 c172 -21 297 -42 355 -60 33 -11 83 -22
110 -26 28 -3 70 -14 95 -24 25 -10 83 -32 130 -50 90 -34 154 -83 165 -127 3
-13 26 -68 51 -121 100 -211 114 -242 114 -247 0 -7 47 -108 121 -261 27 -56
49 -106 49 -113 0 -6 14 -35 30 -64 46 -81 42 -123 -17 -189 -25 -29 -49 -55
-52 -58 -3 -3 -49 -54 -101 -115 -52 -60 -112 -125 -132 -143 -21 -19 -38 -41
-38 -49 0 -7 20 -22 44 -33 37 -16 46 -25 55 -57 6 -21 11 -54 11 -73 0 -19 4
-50 9 -68 8 -27 7 -36 -10 -53 -25 -25 -56 -24 -70 4 -12 23 -99 107 -111 107
-10 0 -78 102 -78 117 0 7 14 25 30 40 17 14 30 32 30 39 0 7 -21 27 -46 45
-43 29 -306 287 -568 556 -65 67 -156 152 -203 190 -46 37 -110 89 -141 115
-31 26 -90 64 -130 83 -69 35 -74 36 -97 21 -35 -23 -55 -20 -102 18 -46 36
-125 54 -184 41 -28 -6 -30 -5 -27 17 2 19 11 24 44 28 73 10 183 125 204 212
19 85 13 124 -24 164 -19 20 -40 50 -47 67 -12 28 -11 32 15 53 27 23 31 24
229 24 111 0 240 -5 287 -10z m-556 -175 c48 -72 -17 -124 -202 -161 -100 -19
-135 -18 -157 6 -15 17 -16 24 -6 49 23 54 48 67 161 80 79 9 110 17 125 32
27 26 59 24 79 -6z m3395 -43 c13 -31 39 -100 58 -152 l34 -95 -16 -75 c-22
-105 -28 -123 -42 -127 -14 -5 -18 3 -58 130 -16 49 -38 101 -49 115 -18 23
-20 38 -18 127 3 115 7 132 30 138 29 6 36 -2 61 -61z m-7236 45 c3 -7 10 -53
17 -102 l13 -90 -40 -80 c-22 -44 -43 -98 -47 -119 -12 -66 -36 -114 -59 -120
-47 -12 -47 -12 -47 117 0 112 2 129 30 202 65 169 114 241 133 192z m738
-106 c130 -37 182 -60 278 -124 88 -57 101 -71 94 -96 -6 -23 -84 -91 -186
-160 -69 -48 -81 -53 -116 -48 -22 3 -66 21 -99 42 -50 31 -78 39 -178 56
-167 27 -344 26 -418 -2 -30 -12 -62 -19 -71 -16 -26 10 -17 54 25 123 22 36
48 85 59 108 15 34 29 48 72 69 29 15 60 27 68 27 9 0 50 11 91 25 112 36 242
35 381 -4z m6069 3 c179 -49 216 -73 256 -171 9 -21 25 -50 36 -66 29 -41 39
-82 24 -103 -14 -18 -20 -17 -91 10 -58 22 -252 21 -399 -3 -101 -17 -128 -25
-179 -57 -75 -46 -138 -56 -170 -27 -12 12 -35 28 -52 36 -16 8 -55 36 -85 62
-30 25 -63 53 -72 61 -10 7 -18 26 -18 42 0 23 12 36 68 75 213 150 461 202
682 141z m-3000 -94 c0 -11 -7 -20 -16 -20 -8 0 -20 -13 -25 -29 -8 -24 -20
-32 -67 -45 -122 -37 -142 -46 -148 -74 -8 -34 -252 -422 -288 -457 -9 -9 -16
-23 -16 -30 0 -21 -29 -45 -45 -39 -22 9 -18 47 8 79 25 33 44 67 105 192 82
168 91 188 98 233 7 48 46 134 66 146 6 4 34 6 62 5 91 -3 207 17 228 39 24
25 38 25 38 0z m66 -276 l54 -35 1 -72 c1 -40 4 -83 8 -96 5 -20 8 -21 18 -9
7 8 19 39 27 69 23 88 33 107 66 124 37 19 45 15 60 -31 9 -27 10 -46 1 -73
-41 -138 -52 -310 -25 -400 17 -58 15 -152 -3 -158 -32 -11 -123 261 -123 369
0 20 -4 40 -10 43 -6 4 -10 -19 -10 -63 0 -76 -7 -88 -59 -98 -23 -5 -37 -2
-52 12 -12 11 -42 21 -72 24 -37 4 -53 10 -55 21 -4 21 25 29 109 29 50 0 73
5 89 18 31 25 21 66 -20 87 -17 9 -30 19 -30 24 0 5 -12 20 -26 35 -32 31 -67
33 -111 6 -27 -16 -33 -26 -33 -56 0 -19 -5 -44 -10 -54 -24 -46 -90 -50 -90
-6 0 13 -7 44 -14 71 -13 41 -13 52 -1 75 24 46 197 180 234 180 13 0 48 -16
77 -36z m-3411 -59 c147 -10 192 -30 151 -64 -14 -12 -39 -16 -225 -41 -160
-22 -405 -39 -422 -30 -27 15 -32 42 -11 70 22 29 33 33 157 54 112 20 158 24
215 20 25 -2 86 -6 135 -9z m6576 -11 c31 -8 71 -14 87 -14 67 0 109 -42 89
-87 -9 -21 -17 -23 -91 -23 -45 0 -142 7 -216 15 -74 9 -178 20 -230 26 -96
10 -140 27 -140 54 0 21 63 35 202 43 147 9 224 5 299 -14z m-4246 -71 c40
-101 109 -189 238 -302 36 -30 38 -36 32 -70 -10 -58 -26 -68 -73 -47 -54 24
-168 139 -220 221 -14 22 -38 55 -55 74 -27 32 -29 39 -24 91 6 66 31 123 54
118 8 -2 29 -39 48 -85z m1507 -112 c23 -9 215 -186 339 -313 72 -74 93 -119
78 -171 -5 -17 -8 -43 -8 -57 1 -20 2 -21 6 -6 6 22 27 46 41 46 24 0 30 -108
11 -217 -9 -50 -17 -68 -41 -88 -35 -29 -37 -30 -85 -10 -40 17 -39 19 9 43
38 20 67 82 67 147 l0 40 -14 -33 c-24 -54 -81 -66 -161 -31 -82 36 -268 127
-287 141 -16 12 -17 30 -9 254 8 213 13 264 27 264 2 0 14 -4 27 -9z m-1644
-28 c6 -10 13 -34 17 -53 4 -19 20 -54 36 -77 16 -23 29 -44 29 -48 0 -4 -18
-27 -40 -52 -22 -25 -40 -49 -40 -54 0 -4 -9 -11 -20 -14 -32 -10 -64 17 -115
99 -54 87 -53 99 7 154 70 64 109 77 126 45z m849 -71 c15 -9 43 -75 43 -100
0 -37 -118 -155 -279 -279 -34 -27 -71 -42 -88 -36 -29 10 -10 44 50 89 34 26
85 70 113 99 49 49 50 53 50 107 -1 52 2 60 33 92 35 36 55 43 78 28z m4003
-12 c26 -14 42 -46 51 -100 4 -25 11 -63 14 -85 11 -66 -49 -150 -70 -97 -22
55 -55 220 -49 247 10 49 18 54 54 35z m-7807 -39 c7 -30 0 -90 -29 -238 -3
-14 -12 -23 -23 -23 -26 0 -71 56 -71 88 0 37 36 159 55 189 23 35 56 27 68
-16z m978 -51 c13 -8 19 -21 19 -48 0 -50 -28 -240 -42 -277 -5 -16 -13 -48
-17 -70 -24 -135 -108 -258 -290 -424 -19 -17 -37 -31 -40 -31 -4 0 -21 -13
-39 -30 -18 -16 -38 -30 -44 -30 -6 0 -25 -10 -42 -23 -17 -12 -89 -51 -161
-87 -71 -36 -134 -70 -140 -76 -5 -5 -37 -30 -70 -55 -73 -54 -140 -121 -157
-157 -23 -47 -42 -39 -76 31 -48 96 -49 94 64 153 38 20 76 42 84 48 8 7 44
29 80 51 188 112 409 300 545 465 126 152 245 395 245 502 0 28 30 68 51 68 6
0 19 -5 30 -10z m5861 -7 c18 -21 32 -63 48 -146 20 -100 124 -288 232 -420
54 -65 182 -195 235 -237 17 -14 48 -38 68 -55 59 -47 268 -185 281 -185 6 0
19 -9 30 -21 10 -11 32 -26 49 -34 69 -28 115 -65 115 -90 0 -21 -5 -25 -29
-25 -16 0 -42 10 -58 23 -15 13 -48 33 -73 44 -25 11 -75 35 -112 52 -37 17
-73 31 -80 31 -7 0 -58 22 -113 49 -55 28 -112 54 -127 60 -16 6 -28 15 -28
20 0 5 -20 17 -45 28 -25 10 -45 21 -45 25 0 4 -17 18 -37 32 -53 33 -181 160
-228 226 -72 99 -125 224 -125 294 0 28 -7 87 -15 131 -18 98 -19 187 -3 203
17 17 42 15 60 -5z m-4092 -44 c9 -26 33 -68 54 -94 45 -59 45 -80 4 -101 -18
-9 -54 -39 -79 -65 -55 -57 -64 -57 -127 10 -54 58 -86 122 -77 153 4 13 37
51 74 85 57 54 71 62 100 60 30 -2 35 -7 51 -48z m4420 26 c47 -7 114 -16 150
-19 53 -5 189 -28 308 -52 17 -4 32 -24 59 -79 19 -42 39 -78 44 -81 16 -10 9
-53 -10 -63 -13 -8 -33 -6 -67 3 -27 8 -80 16 -117 20 -37 3 -112 16 -165 30
-53 13 -117 29 -142 34 -25 5 -67 19 -95 30 -27 12 -63 24 -79 27 -16 3 -44
21 -63 40 -28 28 -33 40 -33 78 0 27 5 47 13 50 16 6 91 -1 197 -18z m-6354
-10 c7 -28 -15 -82 -43 -108 -10 -9 -46 -28 -78 -42 -33 -14 -72 -32 -86 -40
-14 -8 -46 -17 -70 -20 -24 -4 -82 -17 -129 -30 -99 -26 -320 -58 -343 -49
-21 8 -30 39 -22 72 11 44 74 150 93 156 35 10 250 45 342 56 52 6 113 15 135
19 22 5 75 9 117 10 75 1 78 0 84 -24z m3373 -5 c32 -8 50 -35 34 -51 -9 -9
-28 -9 -82 -1 -38 7 -99 12 -135 12 -52 0 -66 3 -66 15 0 16 13 20 100 34 52
8 96 6 149 -9z m-1131 -126 c-207 -234 -632 -645 -950 -920 -153 -133 -254
-215 -286 -232 -21 -12 -27 -11 -46 7 -12 11 -37 51 -56 88 -42 85 -41 83 -95
173 -35 58 -45 83 -43 110 6 75 66 36 111 -73 20 -47 80 -111 123 -132 35 -16
36 -16 97 16 67 34 69 36 197 137 138 109 165 133 364 317 135 125 150 139
417 401 90 89 173 166 184 172 37 20 28 -13 -17 -64z m1090 -1 c80 -20 129
-47 138 -76 21 -67 245 -291 339 -339 17 -9 38 -25 48 -35 15 -17 103 -62 200
-101 28 -12 37 -45 16 -58 -23 -14 -112 -4 -172 20 -34 13 -73 27 -87 31 -38
11 -188 103 -244 149 -27 23 -72 62 -101 87 -106 93 -162 129 -202 129 -49 0
-66 -11 -61 -40 2 -17 14 -27 42 -37 21 -7 45 -18 52 -24 20 -16 17 -56 -3
-64 -83 -33 -120 -20 -158 58 -15 31 -29 73 -32 94 -8 64 7 70 195 73 31 0 28
25 -5 38 -69 26 -125 41 -137 36 -17 -6 -39 20 -34 43 6 34 102 42 206 16z
m-886 -34 c21 -22 36 -44 33 -48 -2 -5 -28 -11 -56 -14 -30 -4 -68 -17 -90
-32 -46 -30 -79 -33 -79 -7 0 17 66 105 98 130 28 21 54 13 94 -29z m-818 -25
c8 -3 24 -25 36 -49 11 -23 43 -68 71 -100 27 -31 48 -62 46 -69 -2 -6 -19
-21 -38 -34 -52 -35 -72 -53 -113 -104 -52 -65 -77 -65 -145 3 -63 62 -84 101
-84 152 0 43 3 46 125 151 64 56 74 61 102 50z m1387 -14 c10 -6 19 -21 19
-34 0 -29 -50 -99 -87 -123 -16 -9 -44 -29 -63 -44 -87 -66 -394 -200 -462
-201 -22 0 -42 2 -45 6 -12 11 28 43 70 56 131 39 358 179 457 281 68 70 79
76 111 59z m-3106 -31 c4 -5 -5 -28 -19 -49 -14 -22 -26 -43 -27 -47 -1 -21
-118 -159 -139 -165 -14 -4 -65 -12 -115 -18 -49 -6 -112 -17 -140 -25 -58
-16 -221 -86 -281 -121 -38 -23 -43 -23 -58 -9 -18 19 -20 43 -6 80 5 14 12
40 15 58 9 48 35 96 56 102 10 4 38 3 62 0 28 -4 56 -1 82 9 22 8 75 22 118
30 42 9 90 22 105 30 15 8 54 22 87 31 73 20 129 46 175 80 35 26 74 33 85 14z
m6418 -23 c27 -19 90 -47 147 -65 55 -18 102 -36 105 -41 3 -4 24 -11 48 -15
23 -3 76 -16 117 -27 41 -12 105 -21 141 -22 37 -1 73 -7 81 -14 18 -14 63
-196 54 -218 -9 -24 -53 -16 -91 17 -42 37 -225 114 -310 131 -33 6 -95 12
-138 13 -66 1 -81 5 -102 25 -38 35 -145 197 -145 218 0 43 31 42 93 -2z
m-7240 -61 c27 -85 35 -132 27 -146 -13 -19 -63 4 -88 42 -20 28 -23 42 -18
81 12 105 49 116 79 23z m8025 13 l24 -46 -22 -48 c-24 -55 -49 -86 -62 -78
-21 13 -28 57 -18 126 16 111 38 124 78 46z m-2614 -120 c55 -54 59 -68 47
-167 -11 -92 -27 -151 -41 -151 -11 0 -20 53 -21 129 -1 75 -9 113 -26 118 -7
3 -13 -31 -17 -104 -10 -151 -8 -148 -69 -177 -53 -26 -169 -45 -202 -33 -14
6 -14 11 5 46 11 22 35 51 53 65 49 38 105 124 119 185 10 45 17 55 41 63 16
6 32 21 37 34 13 33 35 30 74 -8z m-3147 -70 c10 -36 29 -63 75 -107 67 -66
69 -79 15 -111 -19 -11 -53 -43 -76 -70 -60 -71 -82 -84 -115 -69 -63 29 -119
183 -96 267 7 27 28 56 65 91 46 44 60 52 87 49 28 -3 33 -8 45 -50z m1658 34
c6 -4 23 -26 39 -49 16 -24 32 -43 36 -43 4 0 18 -11 31 -24 60 -60 195 -55
244 10 31 41 44 42 76 8 53 -57 245 -190 382 -265 28 -15 184 -69 200 -69 23
0 40 -27 33 -54 -8 -31 -64 -99 -99 -121 -26 -16 -43 -16 -194 -5 -119 8 -188
18 -242 35 -42 13 -93 26 -115 30 -60 10 -202 84 -262 137 -30 26 -60 48 -65
48 -17 0 -43 -17 -80 -52 -44 -41 -204 -125 -256 -133 -21 -4 -76 -17 -123
-30 -92 -26 -349 -51 -403 -39 -37 8 -146 119 -147 150 0 21 25 49 72 78 14
10 73 24 130 32 56 8 126 23 153 34 28 11 72 24 98 30 26 6 65 21 87 35 21 13
50 27 63 30 46 12 226 133 227 153 0 6 3 12 8 12 4 0 24 16 45 35 40 37 46 39
62 27z m-4005 -121 c5 -11 10 -30 10 -43 0 -13 9 -42 20 -66 18 -40 19 -48 6
-100 -8 -31 -18 -75 -23 -97 -6 -29 -13 -40 -27 -40 -14 0 -25 20 -49 85 l-30
84 16 62 c21 80 43 134 56 134 6 0 15 -9 21 -19z m8180 2 c0 -5 5 -37 11 -73
8 -49 8 -89 -2 -163 -14 -107 -26 -128 -54 -97 -24 27 -32 25 -40 -9 -8 -39
-28 -54 -57 -46 -75 24 -269 130 -375 206 -92 66 -118 93 -110 114 9 23 37 18
118 -19 41 -19 101 -39 133 -45 33 -6 69 -17 81 -25 12 -8 41 -20 66 -27 56
-16 77 -34 100 -86 28 -66 39 -54 39 45 0 82 7 117 45 220 5 13 45 17 45 5z
m-2156 -32 c3 -4 32 -18 64 -29 72 -27 100 -56 151 -158 39 -77 41 -86 41
-171 0 -120 -21 -141 -81 -80 -32 32 -51 44 -187 122 -82 47 -101 81 -77 138
9 22 12 54 8 96 -5 55 -3 66 12 78 21 15 61 18 69 4z m-5447 -38 c11 -32 -201
-186 -347 -253 -44 -20 -56 -27 -112 -59 -25 -14 -29 -14 -43 -1 -12 13 -14
29 -9 79 7 62 8 64 53 92 24 16 52 29 60 29 9 0 39 11 66 25 28 13 62 25 77
25 24 0 57 12 153 55 62 28 95 30 102 8z m1496 -68 c9 -60 25 -91 84 -158 38
-43 40 -51 13 -74 -31 -27 -119 -73 -139 -73 -34 0 -73 42 -106 116 -55 120
-55 121 54 217 62 55 84 49 94 -28z m3626 -60 c14 -11 34 -30 46 -42 12 -12
33 -25 48 -28 15 -4 33 -18 40 -31 7 -14 27 -32 43 -42 67 -37 94 -58 94 -69
0 -24 -38 -13 -86 26 -27 21 -67 48 -90 59 -22 11 -46 28 -53 36 -8 9 -18 16
-23 16 -20 0 -108 64 -114 82 -3 10 0 25 6 33 13 15 33 6 89 -40z m747 -10
c66 -33 144 -104 144 -131 0 -7 14 -47 30 -88 39 -96 50 -195 26 -231 -22 -33
-67 -33 -110 0 -18 14 -37 25 -43 25 -5 0 -18 9 -28 20 -10 11 -36 23 -57 27
-65 10 -70 20 -62 143 4 72 3 130 -6 174 -20 109 -6 117 106 61z m-826 -105
c25 -16 69 -47 99 -67 29 -21 68 -47 86 -58 18 -11 61 -41 96 -67 35 -26 78
-56 94 -68 72 -50 165 -118 234 -169 41 -31 117 -88 170 -126 101 -74 339
-260 404 -315 20 -18 37 -39 37 -46 0 -20 -33 -17 -61 4 -39 30 -147 105 -183
127 -19 11 -44 28 -57 38 -13 9 -82 61 -154 114 -71 53 -132 99 -135 102 -11
14 -282 217 -311 233 -17 9 -36 24 -42 33 -7 8 -22 21 -34 28 -12 7 -68 43
-124 81 -93 64 -108 70 -162 74 l-59 5 5 35 c6 31 31 72 46 72 3 0 26 -14 51
-30z m1173 -55 c46 -35 50 -42 62 -105 4 -19 16 -61 26 -92 13 -39 19 -86 19
-146 0 -91 -9 -115 -39 -105 -55 20 -159 74 -163 85 -3 7 1 58 10 113 15 98
13 131 -14 239 -5 19 -2 31 7 37 25 15 45 10 92 -26z m-5093 -45 c4 -8 21 -44
39 -80 17 -36 31 -74 31 -85 0 -11 17 -49 36 -85 20 -36 43 -77 51 -93 8 -15
29 -38 47 -52 46 -35 93 -33 141 5 21 17 42 30 47 30 23 0 -4 -29 -68 -72 -38
-26 -70 -52 -72 -58 -2 -5 -15 -10 -29 -10 -16 0 -36 -13 -56 -35 -52 -59 -80
-45 -98 48 -5 31 -19 82 -29 113 -11 32 -20 67 -20 78 0 21 -36 105 -85 199
-30 57 -31 71 -4 98 22 22 58 22 69 -1z m3464 -26 c26 -25 19 -42 -41 -104
-32 -33 -74 -77 -93 -98 -69 -77 -288 -307 -443 -466 -87 -88 -210 -214 -274
-279 -63 -64 -125 -123 -137 -129 -30 -17 -195 -16 -226 1 -13 8 -97 88 -185
179 -88 91 -207 213 -265 271 -268 272 -543 566 -548 588 -5 21 18 44 41 41
11 -2 28 -15 36 -29 101 -168 535 -604 909 -914 13 -11 41 -35 62 -53 60 -52
74 -47 228 85 75 64 160 138 187 164 28 26 86 80 130 120 244 224 433 427 553
593 36 50 43 54 66 30z m893 -19 c3 -9 3 -19 -1 -22 -9 -10 -59 10 -64 25 -6
18 57 16 65 -3z m-1928 -55 c29 -27 64 -53 79 -56 15 -4 41 -15 58 -25 44 -26
330 -119 368 -119 54 0 61 -12 37 -59 -30 -58 -143 -171 -171 -171 -70 0 -301
90 -377 148 -54 40 -70 40 -119 1 -56 -45 -139 -84 -240 -114 -145 -43 -149
-43 -196 1 -72 69 -118 134 -118 165 0 28 2 29 45 29 25 0 45 4 45 8 0 5 26
14 58 21 31 7 77 22 101 32 24 10 55 19 70 19 14 0 43 12 64 26 21 14 54 28
73 31 26 4 47 19 82 59 29 33 55 54 68 54 12 0 44 -22 73 -50z m1999 -8 c5
-15 -13 -15 -39 -1 -11 5 -17 14 -14 19 7 11 48 -3 53 -18z m56 -32 c30 -11
35 -30 8 -30 -19 0 -42 18 -42 32 0 10 3 10 34 -2z m-5576 -12 c19 -19 14
-106 -9 -178 -23 -72 -32 -227 -13 -251 6 -8 18 -34 28 -59 11 -31 29 -54 59
-74 172 -120 248 -156 386 -182 l93 -18 77 26 c42 15 93 30 114 34 20 3 53 19
73 35 42 33 56 35 78 13 36 -35 0 -99 -62 -109 -20 -3 -64 -12 -97 -20 -93
-21 -295 -38 -371 -30 -141 14 -281 82 -369 177 -69 73 -106 136 -146 245 -12
32 -27 61 -33 65 -28 19 -63 7 -106 -38 -51 -52 -124 -99 -140 -89 -12 7 -4
112 11 153 15 41 62 92 127 138 67 49 270 174 281 174 4 0 12 -5 19 -12z
m7092 -18 c26 -26 25 -40 -5 -69 -18 -16 -25 -34 -25 -60 -1 -20 -14 -70 -30
-111 -17 -41 -30 -79 -30 -84 0 -16 -92 -147 -139 -198 -34 -37 -52 -50 -64
-45 -21 8 -22 50 -1 68 8 7 24 29 35 48 10 20 36 63 57 97 21 33 43 78 49 100
6 21 23 84 37 139 35 128 69 162 116 115z m-1391 -46 c17 -14 61 -41 98 -61
37 -20 73 -42 80 -49 7 -7 23 -15 36 -19 12 -3 67 -28 122 -55 55 -27 115 -54
133 -61 77 -28 103 -77 62 -114 -22 -20 -20 -20 -88 37 -18 16 -40 28 -48 28
-9 0 -28 9 -42 21 -15 11 -83 57 -152 103 -69 46 -149 99 -179 120 -30 20 -61
41 -69 45 -15 8 -9 31 8 31 5 0 22 -12 39 -26z m1549 8 c2 -7 -7 -12 -22 -12
-27 0 -35 15 -13 23 17 7 30 3 35 -11z m-2 -87 c33 -21 39 -58 20 -117 -9 -28
-16 -60 -16 -73 0 -37 -23 -49 -67 -34 -21 7 -48 22 -61 33 -21 18 -22 25 -16
100 5 65 10 85 27 99 25 22 74 18 113 -8z m-812 -34 c27 -29 46 -160 46 -309
0 -76 7 -201 16 -279 18 -149 16 -173 -13 -173 -20 0 -123 96 -123 115 0 12
-58 75 -98 107 -29 23 -28 38 2 38 32 0 61 27 76 70 22 65 50 255 50 337 0
112 9 132 44 94z m-2922 -192 c24 -22 62 -49 85 -60 23 -11 43 -25 45 -31 3
-7 29 -15 59 -18 47 -4 54 -8 57 -29 3 -19 -25 -51 -142 -168 -125 -124 -149
-143 -169 -137 -19 6 -73 55 -216 194 -56 55 -81 91 -81 116 0 22 4 24 49 24
37 0 54 5 75 25 15 14 33 25 41 25 12 0 64 42 105 85 23 24 46 18 92 -26z
m3590 -119 c25 -81 23 -115 -9 -145 -15 -14 -32 -25 -37 -25 -5 0 -28 20 -52
44 -48 48 -49 57 -7 112 13 17 23 36 23 42 0 14 31 32 50 29 8 -1 22 -27 32
-57z m-7332 41 c0 -4 12 -21 27 -37 18 -20 28 -43 31 -75 4 -41 1 -49 -19 -63
-13 -8 -49 -39 -79 -68 -30 -29 -72 -62 -93 -73 -43 -23 -49 -19 -68 50 -10
35 -8 45 12 83 36 66 147 192 170 192 10 0 19 -4 19 -9z m7126 -189 c7 -4 14
-29 17 -57 3 -27 7 -61 9 -75 2 -20 -2 -26 -20 -28 -18 -3 -26 5 -42 40 -37
81 -15 153 36 120z m-6939 -69 c34 -32 78 -72 97 -89 20 -17 36 -40 36 -52 0
-31 -61 -99 -148 -164 -63 -48 -106 -51 -145 -10 -32 34 -33 50 -7 102 22 43
26 75 10 85 -17 11 -11 45 15 79 14 18 25 46 25 63 0 63 39 58 117 -14z m961
-105 c7 -7 12 -39 12 -74 0 -108 -19 -122 -62 -45 -32 56 -35 87 -11 113 19
21 44 23 61 6z m-643 -80 c57 -13 60 -15 63 -45 3 -25 -3 -37 -24 -55 -16 -13
-60 -56 -99 -95 -66 -67 -75 -73 -113 -73 -68 0 -74 38 -16 100 13 14 28 46
33 70 5 25 16 62 25 84 19 42 9 41 131 14z m495 -24 c0 -15 -6 -24 -15 -24
-15 0 -21 40 -9 53 12 11 24 -3 24 -29z m-141 12 c15 -17 -3 -73 -33 -102 -24
-23 -42 -49 -56 -81 -18 -43 -108 -81 -125 -54 -3 5 1 27 9 48 8 21 19 62 25
91 15 74 35 100 79 105 75 8 90 7 101 -7z m124 -133 c8 -7 -11 -33 -24 -33 -5
0 -9 9 -9 20 0 19 20 27 33 13z"/>
<path d="M3564 6947 c-3 -8 -1 -24 5 -38 12 -32 129 -151 141 -144 14 9 -57
156 -89 183 -20 16 -50 15 -57 -1z"/>
<path d="M5526 6937 c-9 -12 -22 -42 -31 -66 -31 -88 -14 -93 62 -18 57 58 61
67 37 91 -22 23 -51 20 -68 -7z"/>
<path d="M4994 6817 c-70 -41 -150 -119 -160 -155 -9 -33 11 -50 69 -55 29 -3
74 -10 101 -17 29 -7 70 -9 102 -5 83 10 71 28 -41 65 -38 13 -76 25 -82 26
-26 6 -12 45 32 91 25 25 45 50 45 55 0 12 -42 9 -66 -5z"/>
<path d="M4140 6808 c0 -8 13 -29 30 -48 42 -50 36 -100 -11 -100 -28 0 -120
-42 -116 -54 6 -17 63 -24 109 -14 24 5 71 12 105 15 68 6 88 20 79 57 -14 58
-196 191 -196 144z"/>
<path d="M5676 6404 c-9 -8 -16 -19 -16 -24 0 -4 -13 -13 -30 -20 -16 -7 -30
-16 -30 -20 0 -5 -16 -17 -35 -29 -19 -11 -35 -25 -35 -31 0 -20 47 -10 70 15
13 14 28 25 34 26 20 1 101 65 104 82 5 22 -41 23 -62 1z"/>
<path d="M5442 6238 c-18 -18 -15 -28 9 -28 25 0 59 17 59 30 0 14 -54 12 -68
-2z"/>
<path d="M5355 6180 c-3 -6 5 -10 19 -10 14 0 28 5 31 10 3 6 -5 10 -19 10
-14 0 -28 -4 -31 -10z"/>
<path d="M5261 6141 c-17 -11 -6 -31 18 -31 18 0 41 18 41 32 0 11 -41 10 -59
-1z"/>
<path d="M3684 6231 c24 -26 69 -29 64 -3 -2 12 -15 18 -43 20 -39 3 -39 3
-21 -17z"/>
<path d="M3775 6181 c6 -5 23 -13 39 -17 22 -5 28 -4 24 7 -2 8 -20 15 -39 17
-23 2 -31 0 -24 -7z"/>
<path d="M3860 6140 c0 -14 50 -32 69 -25 14 6 13 8 -3 21 -23 16 -66 19 -66
4z"/>
<path d="M4403 5890 c-28 -11 -29 -26 -4 -40 30 -16 363 -13 385 3 17 13 17
14 1 30 -14 15 -40 17 -188 16 -95 0 -182 -4 -194 -9z"/>
<path d="M4296 5748 c-20 -28 -6 -54 35 -62 51 -10 505 -7 534 4 34 13 42 36
20 60 -17 19 -33 20 -296 20 -273 0 -278 0 -293 -22z"/>
<path d="M4303 5570 c-13 -5 -23 -16 -23 -23 0 -35 23 -37 315 -35 265 3 289
4 299 21 9 15 7 21 -8 33 -16 11 -70 14 -290 13 -149 0 -281 -4 -293 -9z"/>
<path d="M4373 5444 c-3 -9 -2 -24 4 -33 9 -14 37 -16 189 -19 198 -3 239 1
248 25 15 39 -7 43 -226 43 -184 0 -209 -2 -215 -16z"/>
<path d="M6242 5029 c2 -7 10 -15 17 -17 8 -3 12 1 9 9 -2 7 -10 15 -17 17 -8
3 -12 -1 -9 -9z"/>
<path d="M12610 5135 l0 -2725 595 0 595 0 2 1225 3 1225 63 -212 c35 -117
199 -669 364 -1225 l301 -1013 624 0 623 0 0 2725 0 2725 -595 0 -595 0 0
-1222 -1 -1223 -360 1110 c-198 611 -375 1161 -395 1223 l-36 112 -594 0 -594
0 0 -2725z"/>
<path d="M6285 7386 c-14 -21 -15 -29 -5 -41 18 -21 37 -19 51 6 9 18 7 25 -9
41 -20 20 -20 20 -37 -6z"/>
<path d="M2841 7366 c-23 -28 20 -73 59 -61 28 9 37 45 14 62 -23 17 -58 17
-73 -1z"/>
<path d="M17560 6544 c-185 -50 -292 -222 -268 -431 14 -126 95 -235 216 -291
51 -24 68 -27 172 -27 110 0 118 1 182 33 81 39 148 112 180 192 32 80 31 232
-1 313 -68 173 -279 265 -481 211z"/>
<path d="M23105 6547 c-116 -31 -198 -98 -247 -203 -80 -171 -27 -383 122
-487 78 -54 142 -70 259 -65 80 3 105 9 153 33 75 36 140 101 175 173 26 53
28 66 28 177 0 111 -2 124 -28 177 -36 74 -119 150 -195 178 -70 27 -197 35
-267 17z"/>
<path d="M27830 5875 l0 -525 -90 0 -90 0 0 -395 0 -395 90 0 89 0 4 -722 c3
-659 5 -728 21 -783 86 -290 320 -534 596 -623 114 -37 183 -42 600 -41 l405
0 -85 25 c-365 108 -616 353 -680 664 -18 89 -20 141 -20 788 l0 692 360 0
360 0 0 395 0 395 -360 0 -360 0 0 525 0 525 -420 0 -420 0 0 -525z"/>
<path d="M18820 3865 l0 -1475 425 0 425 0 0 1055 0 1055 380 0 380 0 0 43 c0
55 -33 184 -64 253 -97 211 -313 398 -588 509 l-88 35 -435 0 -435 0 0 -1475z"/>
<path d="M19935 5300 c354 -121 578 -344 640 -641 14 -65 16 -216 15 -1171 l0
-1098 420 0 420 0 0 1064 c0 1167 0 1158 -60 1315 -75 194 -251 386 -445 483
-27 14 -88 38 -135 54 l-85 28 -445 3 -445 3 120 -40z"/>
<path d="M22770 3600 l0 -1740 -460 0 -460 0 0 -420 0 -420 485 0 c532 0 568
3 713 61 243 97 453 329 534 591 l23 73 3 1798 2 1797 -420 0 -420 0 0 -1740z"/>
<path d="M24330 4328 c0 -1051 4 -1174 41 -1295 101 -327 389 -581 719 -633
64 -10 885 -13 845 -3 -64 16 -210 70 -270 101 -105 52 -182 108 -266 191
-118 119 -191 262 -218 431 -7 43 -11 436 -11 1143 l0 1077 -420 0 -420 0 0
-1012z"/>
<path d="M26090 4285 l0 -1055 -381 0 -380 0 6 -57 c27 -234 144 -426 353
-581 86 -64 224 -139 327 -177 l65 -25 430 0 430 0 0 1475 0 1475 -425 0 -425
0 0 -1055z"/>
<path d="M31312 5329 c-425 -55 -769 -321 -848 -654 -23 -101 -15 -265 19
-363 65 -189 171 -298 519 -537 137 -94 319 -219 405 -278 87 -60 171 -120
187 -135 109 -102 77 -296 -59 -365 -78 -39 -265 -47 -355 -16 -91 32 -160
116 -160 196 l0 33 -356 0 -356 0 7 -42 c19 -113 87 -261 169 -367 152 -198
426 -356 666 -386 101 -12 342 51 479 125 l56 31 -40 -36 c-34 -29 -117 -75
-225 -123 -65 -29 214 17 316 52 302 104 515 298 605 553 30 84 37 247 15 347
-31 140 -118 280 -237 384 -50 45 -229 170 -631 442 -232 157 -271 187 -295
227 -52 90 -41 203 28 278 51 55 107 75 229 82 212 12 326 -55 347 -202 l6
-45 354 0 355 0 -7 43 c-42 249 -218 497 -452 634 l-42 25 -112 -22 c-128 -24
-276 -74 -351 -119 l-53 -32 40 37 c47 42 188 113 293 146 39 12 72 26 72 29
0 9 -163 46 -253 58 -89 12 -242 12 -335 0z"/>
<path d="M33230 4328 c0 -1051 4 -1174 41 -1295 101 -327 389 -581 719 -633
64 -10 885 -13 845 -3 -64 16 -210 70 -270 101 -105 52 -182 108 -266 191
-118 119 -191 262 -218 431 -7 43 -11 436 -11 1143 l0 1077 -420 0 -420 0 0
-1012z"/>
<path d="M34990 4285 l0 -1055 -381 0 -380 0 6 -57 c27 -234 144 -426 353
-581 86 -64 224 -139 327 -177 l65 -25 430 0 430 0 0 1475 0 1475 -425 0 -425
0 0 -1055z"/>
<path d="M17270 3860 l0 -1470 425 0 425 0 0 1470 0 1470 -425 0 -425 0 0
-1470z"/>
<path d="M28830 3193 c0 -55 25 -162 53 -231 74 -185 269 -379 492 -490 67
-33 198 -82 221 -82 12 0 14 61 14 420 l0 420 -390 0 -390 0 0 -37z"/>
</g>
</svg>
